<svg width="38" height="38" viewBox="0 0 38 38" fill="none" xmlns="http://www.w3.org/2000/svg">
<path d="M19.1667 3.16675C16.0022 3.16675 12.9087 4.10513 10.2775 5.86323C7.64635 7.62134 5.59559 10.1202 4.38459 13.0438C3.17359 15.9674 2.85674 19.1845 3.4741 22.2882C4.09146 25.3919 5.61531 28.2428 7.85295 30.4804C10.0906 32.7181 12.9415 34.2419 16.0452 34.8593C19.1489 35.4767 22.366 35.1598 25.2896 33.9488C28.2132 32.7378 30.7121 30.6871 32.4702 28.0559C34.2283 25.4247 35.1667 22.3312 35.1667 19.1667C35.1667 17.0656 34.7528 14.985 33.9487 13.0438C33.1447 11.1026 31.9661 9.33878 30.4804 7.85304C28.9946 6.3673 27.2308 5.18875 25.2896 4.38468C23.3484 3.5806 21.2678 3.16675 19.1667 3.16675V3.16675ZM19.1667 31.9667C16.6351 31.9667 14.1603 31.216 12.0554 29.8096C9.95041 28.4031 8.30981 26.404 7.341 24.0651C6.3722 21.7262 6.11872 19.1525 6.61261 16.6696C7.1065 14.1866 8.32558 11.9059 10.1157 10.1158C11.9058 8.32567 14.1865 7.10659 16.6695 6.6127C19.1525 6.11881 21.7261 6.37229 24.065 7.34109C26.4039 8.30989 28.403 9.9505 29.8095 12.0554C31.2159 14.1604 31.9667 16.6351 31.9667 19.1667C31.9667 22.5615 30.6181 25.8172 28.2176 28.2177C25.8172 30.6182 22.5614 31.9667 19.1667 31.9667V31.9667Z" fill="#4F4F4F"/>
<path d="M23.2908 14.7091C23.1436 14.5607 22.9685 14.4429 22.7756 14.3625C22.5826 14.2821 22.3757 14.2407 22.1667 14.2407C21.9576 14.2407 21.7507 14.2821 21.5577 14.3625C21.3648 14.4429 21.1897 14.5607 21.0425 14.7091L19 16.7674L16.9575 14.7091C16.6593 14.4109 16.255 14.2434 15.8333 14.2434C15.4117 14.2434 15.0073 14.4109 14.7092 14.7091C14.411 15.0072 14.2435 15.4116 14.2435 15.8332C14.2435 16.2549 14.411 16.6593 14.7092 16.9574L16.7675 18.9999L14.7092 21.0424C14.5608 21.1896 14.443 21.3647 14.3626 21.5577C14.2822 21.7506 14.2408 21.9576 14.2408 22.1666C14.2408 22.3756 14.2822 22.5825 14.3626 22.7755C14.443 22.9684 14.5608 23.1435 14.7092 23.2907C14.8564 23.4391 15.0315 23.5569 15.2244 23.6373C15.4174 23.7177 15.6243 23.7591 15.8333 23.7591C16.0423 23.7591 16.2493 23.7177 16.4422 23.6373C16.6352 23.5569 16.8103 23.4391 16.9575 23.2907L19 21.2324L21.0425 23.2907C21.1897 23.4391 21.3648 23.5569 21.5577 23.6373C21.7507 23.7177 21.9576 23.7591 22.1667 23.7591C22.3757 23.7591 22.5826 23.7177 22.7756 23.6373C22.9685 23.5569 23.1436 23.4391 23.2908 23.2907C23.4392 23.1435 23.557 22.9684 23.6374 22.7755C23.7178 22.5825 23.7592 22.3756 23.7592 22.1666C23.7592 21.9576 23.7178 21.7506 23.6374 21.5577C23.557 21.3647 23.4392 21.1896 23.2908 21.0424L21.2325 18.9999L23.2908 16.9574C23.4392 16.8102 23.557 16.6351 23.6374 16.4421C23.7178 16.2492 23.7592 16.0423 23.7592 15.8332C23.7592 15.6242 23.7178 15.4173 23.6374 15.2243C23.557 15.0314 23.4392 14.8563 23.2908 14.7091V14.7091Z" fill="#4F4F4F"/>
</svg>
