<svg width="734" height="263" viewBox="0 0 734 263" fill="none" xmlns="http://www.w3.org/2000/svg">
<rect x="155" y="77" width="120" height="50" rx="25" fill="#50B8B2"/>
<rect x="287" width="120" height="50" rx="25" fill="#BDBDBD"/>
<rect x="595" y="94" width="138" height="48" rx="24" fill="white" stroke="#828282" stroke-width="2"/>
<rect x="1" y="18" width="138" height="78" rx="39" fill="white" stroke="#828282" stroke-width="2"/>
<rect x="1" y="116" width="138" height="78" rx="39" fill="white" stroke="#828282" stroke-width="2"/>
<rect x="595" y="154" width="138" height="48" rx="24" fill="white" stroke="#828282" stroke-width="2"/>
<rect x="595" y="214" width="138" height="48" rx="24" fill="white" stroke="#828282" stroke-width="2"/>
<rect x="287" y="153" width="120" height="50" rx="25" fill="#EB5757"/>
<rect x="422.5" y="153.5" width="139" height="49" rx="24.5" fill="#F2994A" stroke="#F2994A"/>
<path d="M211.242 97.102C211.026 98.452 210.558 100.36 210.126 101.548L211.458 101.89C211.89 100.756 212.412 98.974 212.862 97.462L211.242 97.102ZM204.366 97.57C204.78 98.938 205.14 100.738 205.212 101.926L206.652 101.566C206.58 100.396 206.202 98.632 205.734 97.246L204.366 97.57ZM204.078 94.78V96.364H213.078V94.78H204.078ZM203.412 102.556V104.176H213.438V102.556H203.412ZM207.624 95.32V110.512H209.298V95.32H207.624ZM197.544 99.28V100.594H202.71V99.28H197.544ZM197.544 101.674V102.988H202.71V101.674H197.544ZM196.824 96.832V98.218H203.448V96.832H196.824ZM198.228 104.122V105.508H201.342V108.082H198.228V109.468H202.728V104.122H198.228ZM197.544 104.122V110.278H198.894V104.122H197.544ZM198.678 94.384C199.128 95.14 199.668 96.202 199.902 96.868L201.18 96.094C200.91 95.446 200.37 94.474 199.884 93.736L198.678 94.384ZM219.54 93.88C218.586 96.544 216.948 99.19 215.238 100.882C215.526 101.278 216.012 102.196 216.174 102.61C218.118 100.576 219.972 97.444 221.16 94.384L219.54 93.88ZM217.686 98.668V110.494H219.306V97.066L219.288 97.048L217.686 98.668ZM221.754 102.736V110.512H223.446V104.356H229.494V110.44H231.24V102.736H221.754ZM225.57 93.808V103.6H227.316V93.808H225.57ZM220.818 97.642V99.28H232.302V97.642H220.818ZM222.582 108.136V109.756H230.466V108.136H222.582Z" fill="white"/>
<path d="M328.874 27.528V32.01C328.874 33.666 329.378 34.17 331.304 34.17C331.7 34.17 333.662 34.17 334.076 34.17C335.732 34.17 336.2 33.486 336.398 30.876C335.912 30.768 335.21 30.498 334.832 30.228C334.76 32.316 334.634 32.64 333.932 32.64C333.482 32.64 331.88 32.64 331.538 32.64C330.764 32.64 330.638 32.568 330.638 31.992V27.528H328.874ZM324.842 17.754C323.888 19.554 322.106 21.732 319.676 23.37C320.072 23.64 320.63 24.216 320.882 24.612C323.51 22.722 325.382 20.364 326.696 18.114L324.842 17.754ZM323.438 23.856H333.158V26.646H323.438V23.856ZM321.728 22.344V28.176H334.958V22.344H321.728ZM329.792 19.104V19.428C329.378 20.346 328.424 21.75 327.596 22.596C327.974 22.812 328.55 23.172 328.874 23.424C329.81 22.488 330.944 20.994 331.628 19.788L330.458 19.032L330.17 19.104H329.792ZM324.788 19.104L323.924 20.508H330.296V19.104H324.788ZM327.326 23.352C327.002 27.672 326.498 31.29 319.91 32.928C320.288 33.288 320.702 33.936 320.882 34.368C327.866 32.46 328.73 28.302 329.126 23.352H327.326ZM348.08 21.102V22.668H355.19V21.102H348.08ZM348.638 17.808C348.08 20.85 347.072 23.802 345.578 25.638C345.938 25.926 346.586 26.592 346.856 26.916C348.44 24.81 349.628 21.534 350.33 18.114L348.638 17.808ZM352.472 22.074C351.716 27.636 349.88 31.128 345.56 33.036C345.884 33.396 346.388 34.188 346.568 34.584C351.212 32.316 353.282 28.464 354.236 22.29L352.472 22.074ZM348.926 22.434L347.414 22.704C348.476 28.176 350.402 32.406 354.344 34.422C354.614 33.972 355.118 33.324 355.514 32.982C351.788 31.29 349.826 27.276 348.926 22.434ZM339.53 33.81C339.998 33.432 340.754 33.054 345.992 31.074C345.902 30.696 345.794 29.976 345.794 29.472L340.052 31.488L339.314 32.154L339.53 33.81ZM339.53 33.81C339.53 33.198 341.204 32.496 341.204 32.496V24.162H339.494V30.966C339.494 31.632 339.188 31.902 338.882 32.046C339.17 32.478 339.44 33.324 339.53 33.81ZM339.278 19.014V20.688H344.12V24.162H339.854V25.854H345.812V19.014H339.278ZM361.04 32.604V33.936H370.76V32.604H361.04ZM360.248 29.544V34.512H361.922V30.858H369.878V34.458H371.624V29.544H360.248ZM358.826 19.77V21.048H372.974V19.77H358.826ZM358.34 24.27V25.548H373.532V24.27H358.34ZM359.96 22.02V23.262H371.84V22.02H359.96ZM357.782 27.312V28.644H374.036V27.312H357.782ZM364.964 20.364V25.062H366.728V20.364H364.964ZM361.238 18.222C361.634 18.744 362.048 19.464 362.228 19.968L363.812 19.392C363.632 18.906 363.2 18.222 362.75 17.754L361.238 18.222ZM360.41 25.872C360.77 26.358 361.148 27.078 361.274 27.528L362.93 27.096C362.75 26.628 362.372 25.98 361.976 25.494L360.41 25.872ZM368.834 17.772C368.582 18.438 368.096 19.392 367.7 20.022L369.212 20.346C369.626 19.788 370.148 18.978 370.616 18.114L368.834 17.772ZM369.716 25.512C369.5 26.124 369.05 27.024 368.708 27.618L370.274 27.888C370.634 27.348 371.048 26.61 371.444 25.818L369.716 25.512Z" fill="white"/>
<path d="M628.18 112.824V114.318H634.444V112.824H628.18ZM630.178 125.046V126.45H635.002V125.046H630.178ZM630.178 122.112V123.426H635.038V122.112H630.178ZM627.37 116.172V117.666H636.64V116.172H627.37ZM630.772 110.952V117.144H632.356V110.952H630.772ZM635.524 111.51C633.85 115.722 630.844 118.98 626.956 120.87C627.262 121.212 627.766 121.914 627.964 122.274C631.978 120.096 635.164 116.55 637.072 111.96L635.524 111.51ZM630.718 119.232H630.106L629.17 120.222V127.458H630.718V120.618H634.966V119.232H630.718ZM634.282 119.232V127.206H635.92V119.232H634.282ZM637.324 111.834V127.512H638.998V113.436H642.67V111.834H637.324ZM642.256 111.834V112.392C641.752 113.778 640.816 116.352 639.952 118.17C641.662 119.664 642.166 121.014 642.166 122.094C642.166 122.724 642.04 123.21 641.662 123.426C641.446 123.552 641.158 123.606 640.852 123.624C640.492 123.642 640.024 123.624 639.502 123.588C639.772 124.038 639.952 124.776 639.97 125.244C640.528 125.28 641.14 125.262 641.608 125.208C642.076 125.154 642.508 125.01 642.85 124.776C643.534 124.326 643.804 123.48 643.804 122.256C643.804 121.014 643.39 119.592 641.662 117.954C642.472 116.316 643.372 114.246 644.074 112.536L642.85 111.762L642.58 111.834H642.256ZM653.596 114.462V127.458H655.36V114.462H653.596ZM646.396 113.364V115.038H662.74V113.364H646.396ZM648.052 117.288V125.532H649.762V118.962H659.896V117.288H648.052ZM659.464 117.288V123.516C659.464 123.75 659.374 123.84 659.068 123.858C658.762 123.858 657.682 123.858 656.602 123.822C656.836 124.29 657.106 124.992 657.178 125.496C658.654 125.496 659.68 125.478 660.364 125.208C661.03 124.938 661.228 124.434 661.228 123.534V117.288H659.464ZM652.84 111.168C653.326 112.032 653.902 113.238 654.136 113.958L655.9 113.364C655.63 112.644 655 111.492 654.514 110.646L652.84 111.168ZM665.566 111.708V113.238H681.316V111.708H665.566ZM672.676 112.356V119.448C672.676 122.382 672.01 124.866 665.224 126.036C665.584 126.432 666.052 127.152 666.25 127.53C673.27 126.09 674.458 123.012 674.458 119.466V112.356H672.676ZM668.806 118.8H678.508V120.348H668.806V118.8ZM668.806 115.956H678.508V117.486H668.806V115.956ZM667.186 114.552V121.734H680.2V114.552H667.186ZM669.094 121.788L667.618 122.382C670.174 126.468 674.764 127.206 681.262 127.404C681.352 126.846 681.676 126.126 681.982 125.73C675.628 125.658 671.488 125.19 669.094 121.788ZM694.096 116.838V118.422H700.666V116.838H694.096ZM684.376 112.662V114.066H692.404V112.662H684.376ZM684.196 119.808V121.266H692.44V119.808H684.196ZM684.106 116.73V118.152H692.692V116.73H684.106ZM697.156 117.522V127.44H698.812V117.522H697.156ZM685.456 114.426C685.744 115.146 685.996 116.118 686.086 116.73L687.508 116.334C687.418 115.74 687.148 114.804 686.824 114.102L685.456 114.426ZM689.938 114.084C689.704 114.912 689.29 116.154 688.948 116.928L690.334 117.234C690.694 116.514 691.108 115.416 691.486 114.39L689.938 114.084ZM699.01 111.06C697.714 111.636 695.446 112.194 693.448 112.536C693.646 112.896 693.88 113.472 693.97 113.832C696.094 113.526 698.56 113.004 700.36 112.32L699.01 111.06ZM687.058 111.096C687.418 111.87 687.85 112.914 688.012 113.562L689.794 113.076C689.614 112.428 689.146 111.42 688.75 110.682L687.058 111.096ZM693.448 112.536V118.872C693.448 121.248 693.322 124.308 691.882 126.432C692.242 126.612 692.908 127.152 693.196 127.458C694.798 125.118 695.032 121.482 695.032 118.872V112.536H693.448ZM689.992 122.508C690.514 123.372 691.144 124.578 691.432 125.334L692.62 124.614C692.332 123.894 691.702 122.76 691.126 121.896L689.992 122.508ZM685.654 122.04C685.276 123.21 684.664 124.452 683.998 125.298C684.322 125.478 684.898 125.874 685.15 126.09C685.816 125.172 686.554 123.714 686.986 122.436L685.654 122.04ZM687.706 117.504V127.422H689.362V117.504H687.706Z" fill="#828282"/>
<path d="M23.474 45.014L23.906 46.742C25.634 46.31 27.884 45.734 29.972 45.158L29.792 43.592C27.488 44.15 25.076 44.708 23.474 45.014ZM26.48 34.826V51.512H28.118V34.826H26.48ZM24.392 36.158C24.194 38.39 23.816 40.712 23.168 42.224C23.492 42.332 24.122 42.566 24.41 42.71C25.022 41.144 25.454 38.75 25.706 36.356L24.392 36.158ZM24.662 38.426L24.32 40.064H29.828V38.426H24.662ZM30.422 36.608V38.174H39.53V36.608H30.422ZM31.142 40.118V41.702H38.954V40.118H31.142ZM30.278 43.664V45.23H39.908V43.664H30.278ZM34.058 34.79V40.982H35.732V34.79H34.058ZM36.308 42.152V49.496C36.308 49.73 36.236 49.802 35.966 49.802C35.678 49.82 34.724 49.82 33.77 49.784C34.004 50.27 34.256 50.972 34.328 51.458C35.624 51.458 36.56 51.44 37.172 51.17C37.82 50.9 38 50.432 38 49.532V42.152H36.308ZM31.286 46.328C32.078 47.21 33.032 48.452 33.446 49.244L34.814 48.362C34.364 47.588 33.374 46.4 32.564 45.554L31.286 46.328ZM45.488 40.352V41.99H55.748V40.352H45.488ZM50.582 44.6V46.184H56.648V44.6H50.582ZM49.682 41.18V49.892L51.464 50.108V41.18H49.682ZM45.452 43.178C45.092 46.382 44.156 48.92 42.158 50.432C42.554 50.684 43.274 51.26 43.544 51.566C45.596 49.784 46.694 47.012 47.18 43.358L45.452 43.178ZM46.694 45.446L45.308 45.95C46.856 50.414 49.718 51.242 53.966 51.242H58.304C58.394 50.738 58.682 49.928 58.934 49.514C57.908 49.55 54.848 49.55 54.056 49.55C50.6 49.532 47.918 48.956 46.694 45.446ZM42.986 36.788V40.982H44.66V38.408H56.468V40.982H58.214V36.788H42.986ZM49.124 35.132C49.538 35.906 49.952 36.914 50.096 37.526L51.878 36.986C51.698 36.338 51.248 35.384 50.816 34.664L49.124 35.132ZM63.398 34.808V51.512H65.108V34.808H63.398ZM61.814 38.246C61.688 39.722 61.364 41.72 60.896 42.926L62.192 43.376C62.642 42.044 62.966 39.938 63.056 38.426L61.814 38.246ZM65 38.246C65.486 39.236 66.008 40.532 66.188 41.324L67.43 40.712C67.232 39.956 66.692 38.696 66.17 37.742L65 38.246ZM68.564 35.636C68.204 38.066 67.556 40.514 66.53 42.062C66.944 42.242 67.718 42.62 68.06 42.854C69.032 41.162 69.788 38.552 70.22 35.906L68.564 35.636ZM68.852 38.552L68.348 40.172H77.204V38.552H68.852ZM71.57 34.898V50.216H73.28V34.898H71.57ZM67.88 43.574V45.176H76.808V43.574H67.88ZM66.53 49.28V50.918H77.69V49.28H66.53ZM83.036 36.05V37.67H94.412V36.05H83.036ZM83.036 40.226V41.828H94.412V40.226H83.036ZM82.964 44.51V46.112H94.466V44.51H82.964ZM82.064 36.05V42.548C82.064 45.086 81.884 48.29 79.904 50.504C80.282 50.72 80.966 51.296 81.236 51.62C83.414 49.226 83.738 45.356 83.738 42.566V36.05H82.064ZM93.782 36.05V49.37C93.782 49.694 93.656 49.802 93.314 49.82C92.972 49.82 91.766 49.838 90.596 49.784C90.83 50.234 91.1 50.972 91.172 51.422C92.846 51.44 93.908 51.404 94.574 51.134C95.24 50.864 95.474 50.378 95.474 49.37V36.05H93.782ZM87.662 36.68V51.332H89.39V36.68H87.662ZM106.274 44.6C105.698 45.644 104.78 46.76 103.88 47.516C104.258 47.696 104.87 48.11 105.176 48.362C106.04 47.534 107.084 46.238 107.75 45.05L106.274 44.6ZM111.53 45.104C112.448 46.058 113.456 47.372 113.888 48.236L115.31 47.534C114.842 46.652 113.78 45.374 112.862 44.474L111.53 45.104ZM106.328 39.56V40.964H112.916V39.56H106.328ZM104.294 42.458V43.844H114.878V42.458H104.294ZM109.064 34.628C107.768 36.788 105.41 38.912 103.268 40.118C103.664 40.442 104.132 40.946 104.384 41.324C106.634 39.902 108.974 37.634 110.45 35.222L109.064 34.628ZM108.74 40.352V48.83H110.378V40.352H108.74ZM108.722 36.356C110.738 37.688 113.348 39.686 114.572 40.964L115.67 39.704C114.374 38.426 111.71 36.536 109.73 35.276L108.722 36.356ZM99.722 35.492C100.46 36.392 101.414 37.652 101.864 38.408L103.196 37.526C102.728 36.77 101.81 35.618 101 34.754L99.722 35.492ZM99.092 38.984V40.37H102.872V38.984H99.092ZM102.494 47.048L101.36 47.534C102.71 50.72 105.014 51.224 109.226 51.224C111.26 51.224 113.546 51.188 115.328 51.08C115.418 50.612 115.616 49.838 115.868 49.496C113.942 49.676 111.152 49.766 109.244 49.766C105.788 49.748 103.538 49.442 102.494 47.048ZM102.188 43.43V43.7C101.756 46.904 100.55 49.19 98.768 50.414C99.092 50.648 99.668 51.224 99.884 51.566C101.774 50.162 103.16 47.552 103.7 43.682L102.962 43.394L102.692 43.43H102.188ZM99.398 45.032C99.542 44.888 100.028 44.78 100.478 44.78H102.854V43.43H100.1L99.398 43.79V45.032ZM99.398 45.014C99.398 44.6 100.64 43.988 100.64 43.988C101.648 42.854 103.196 40.604 104.006 39.38L102.89 38.894L102.404 39.092V39.146C101.81 40.1 100.226 42.44 99.686 42.962C99.38 43.304 99.074 43.43 98.786 43.502C98.966 43.844 99.29 44.636 99.398 45.014ZM34.58 61.672V63.148H37.91V61.672H34.58ZM30.476 62.428V63.85H34.022V62.428H30.476ZM34.76 65.11V66.532H37.838V65.11H34.76ZM34.634 68.458V69.88H37.694V68.458H34.634ZM25.742 65.074V66.496H28.784V65.074H25.742ZM25.832 68.404V69.826H28.856V68.404H25.832ZM36.956 61.672C36.974 65.056 36.83 69.664 36.632 72.364H38.216C38.414 69.7 38.504 65.128 38.522 61.672H36.956ZM28.298 60.898C27.38 61.348 26.03 61.888 24.896 62.266C25.058 62.626 25.238 63.13 25.31 63.472C26.48 63.166 27.902 62.752 29.072 62.284L28.298 60.898ZM29.648 60.952V66.874H33.32V65.524H31.106V60.952H29.648ZM23.474 71.734V73.318H39.944V71.734H23.474ZM33.302 74.524C35.156 75.406 37.154 76.612 38.36 77.44L39.476 76.144C38.234 75.334 36.128 74.2 34.238 73.336L33.302 74.524ZM28.694 73.426C27.542 74.362 25.346 75.55 23.636 76.216C23.96 76.576 24.392 77.134 24.608 77.494C26.372 76.756 28.586 75.568 30.098 74.488L28.694 73.426ZM24.896 62.266L25.238 72.256H26.768L26.444 62.716L24.896 62.266ZM30.08 67.504C29.954 68.53 29.738 69.556 29.234 70.294C29.54 70.438 30.116 70.798 30.35 70.996C30.872 70.186 31.214 68.944 31.376 67.72L30.08 67.504ZM32.456 65.542V70.222C32.456 70.384 32.402 70.438 32.222 70.438C32.06 70.456 31.52 70.456 30.962 70.438C31.124 70.744 31.286 71.194 31.358 71.536C32.24 71.536 32.888 71.536 33.338 71.338C33.77 71.158 33.896 70.87 33.896 70.222V65.542H32.456ZM42.68 63.706V65.218H49.178V63.706H42.68ZM42.338 67.882V69.43H49.502V67.882H42.338ZM45.164 60.988V67.342C45.164 70.114 45.002 73.966 42.176 76.072C42.554 76.378 43.094 76.954 43.328 77.314C46.424 74.794 46.766 70.6 46.766 67.342V60.988H45.164ZM46.478 70.078L45.434 70.888C46.172 71.716 47.846 73.804 48.494 74.812L49.646 73.57C49.178 73.012 47.09 70.636 46.478 70.078ZM51.698 65.848H56.324V67.306H51.698V65.848ZM51.698 68.674H56.324V70.168H51.698V68.674ZM51.698 63.004H56.324V64.462H51.698V63.004ZM50.114 61.492V71.68H57.962V61.492H50.114ZM54.344 71.086V75.208C54.344 76.702 54.632 77.188 56.036 77.188C56.306 77.188 57.116 77.188 57.386 77.188C58.556 77.188 58.952 76.558 59.096 74.056C58.664 73.93 57.998 73.678 57.674 73.408C57.638 75.442 57.566 75.694 57.224 75.694C57.044 75.694 56.432 75.694 56.306 75.694C55.964 75.694 55.928 75.64 55.928 75.19V71.086H54.344ZM51.464 71.374C51.212 73.624 50.618 75.316 47.774 76.252C48.116 76.54 48.548 77.134 48.728 77.512C51.95 76.342 52.76 74.236 53.084 71.374H51.464ZM66.728 72.202V73.624H77.546V72.202H66.728ZM69.374 68.602H75.062V69.682H69.374V68.602ZM69.374 66.388H75.062V67.432H69.374V66.388ZM67.79 65.146V70.906H76.718V65.146H67.79ZM71.39 70.708C71.102 73.552 70.4 75.298 66.224 76.162C66.53 76.504 66.944 77.134 67.106 77.53C71.75 76.432 72.704 74.218 73.064 70.708H71.39ZM67.016 62.212V63.598H71.966V62.212H67.016ZM69.05 60.808V64.75H70.58V60.808H69.05ZM73.91 60.808V64.75H75.422V60.808H73.91ZM72.488 62.194V63.598H77.726V62.194H72.488ZM72.2 74.686C73.73 75.496 75.836 76.72 76.862 77.44L77.942 76.234C76.844 75.514 74.72 74.38 73.226 73.624L72.2 74.686ZM61.436 64.246V65.812H67.16V64.246H61.436ZM63.65 60.808V77.512H65.198V60.808H63.65ZM63.65 65.344C63.2 67.648 62.102 70.654 61.004 72.22C61.292 72.652 61.67 73.408 61.85 73.912C63.02 72.058 64.082 68.53 64.586 65.74L63.65 65.344ZM65.108 66.244L64.316 66.874C64.802 67.756 65.882 70.024 66.278 71.086L67.304 69.898C66.98 69.304 65.522 66.802 65.108 66.244ZM85.358 64.714V66.01H96.428V64.714H85.358ZM86.204 69.682V70.924H95.618V69.682H86.204ZM85.466 72.13V73.444H96.248V72.13H85.466ZM89.66 60.826V74.992H91.28V60.826H89.66ZM86.438 62.266V63.58H93.782V67.198H86.33V68.53H95.294V62.266H86.438ZM80.48 61.87V63.382H84.584V61.87H80.48ZM81.884 67.018L81.758 68.512H84.548V67.018H81.884ZM83.954 67.018V67.324C83.54 71.878 82.208 74.83 79.958 76.396C80.318 76.612 80.948 77.206 81.2 77.512C83.504 75.784 84.998 72.436 85.52 67.216L84.566 66.982L84.26 67.018H83.954ZM81.884 69.79L80.624 70.24C82.334 76.018 85.808 77.116 90.974 77.116H96.14C96.23 76.666 96.518 75.91 96.77 75.568C95.708 75.586 91.874 75.586 91.028 75.586C86.582 75.586 83.306 74.722 81.884 69.79ZM81.092 69.196C81.092 68.872 82.262 68.35 82.262 68.35V68.332C83.36 66.82 84.584 64.624 85.592 62.338L84.548 61.636L83.936 61.906V61.996C83.216 64.012 81.992 66.154 81.596 66.712C81.236 67.306 80.768 67.756 80.408 67.846C80.624 68.188 80.966 68.854 81.092 69.196ZM99.506 65.596V66.82H105.752V65.596H99.506ZM101.9 65.974V69.772H103.466V65.974H101.9ZM99.29 69.682L99.506 71.068C101.234 70.816 103.574 70.492 105.806 70.15L105.752 68.836C103.376 69.178 100.928 69.502 99.29 69.682ZM108.308 65.866V67.252C108.308 68.314 107.858 69.412 105.59 70.24C105.896 70.438 106.472 70.96 106.688 71.248C109.154 70.276 109.748 68.728 109.748 67.288V65.866H108.308ZM111.368 65.506V69.106C111.368 70.168 111.476 70.492 111.746 70.762C112.016 71.014 112.448 71.122 112.844 71.122C113.06 71.122 113.492 71.122 113.726 71.122C114.014 71.122 114.374 71.068 114.59 70.96C114.86 70.834 115.022 70.618 115.148 70.33C115.238 70.024 115.328 69.286 115.346 68.602C114.968 68.476 114.5 68.242 114.212 68.008C114.194 68.638 114.176 69.124 114.14 69.34C114.104 69.556 114.032 69.664 113.978 69.7C113.906 69.754 113.78 69.772 113.672 69.772C113.546 69.772 113.366 69.772 113.276 69.772C113.186 69.772 113.096 69.754 113.042 69.7C112.97 69.628 112.97 69.43 112.97 69.124V65.506H111.368ZM99.2 71.95V73.318H115.418V71.95H99.2ZM106.454 70.852V77.494H108.11V70.852H106.454ZM106.094 68.152C107.552 68.8 109.568 69.772 110.594 70.384L111.206 69.232C110.162 68.674 108.146 67.756 106.706 67.162L106.094 68.152ZM106.4 65.506V66.658H111.908V65.506H106.4ZM101.45 61.834V63.148H107.138V61.834H101.45ZM108.794 61.834V63.148H115.544V61.834H108.794ZM101.684 60.664C101.09 61.906 100.046 63.13 98.948 63.94C99.29 64.228 99.866 64.804 100.118 65.11C101.252 64.138 102.458 62.626 103.196 61.114L101.684 60.664ZM108.974 60.664C108.488 61.978 107.57 63.238 106.508 64.066C106.868 64.3 107.498 64.822 107.786 65.092C108.866 64.138 109.928 62.608 110.54 61.078L108.974 60.664ZM102.656 63.706C103.196 64.246 103.88 65.02 104.204 65.506L105.356 64.606C105.014 64.12 104.312 63.4 103.754 62.896L102.656 63.706ZM110.522 63.652C111.062 64.174 111.692 64.876 111.998 65.344L113.222 64.462C112.898 64.012 112.232 63.346 111.692 62.878L110.522 63.652ZM103.988 73.57C102.962 74.578 101 75.46 99.182 75.856C99.56 76.198 100.064 76.846 100.298 77.26C102.224 76.684 104.24 75.496 105.392 74.11L103.988 73.57ZM109.226 74.506C110.828 75.226 112.916 76.36 113.96 77.116L115.166 75.928C114.068 75.172 111.944 74.11 110.342 73.462L109.226 74.506Z" fill="#828282"/>
<path d="M33.392 146.65C35.372 147.55 37.478 148.702 38.702 149.548L40.088 148.288C38.756 147.478 36.506 146.344 34.49 145.462L33.392 146.65ZM23.564 144.058V145.588H39.872V144.058H23.564ZM27.056 136.336V137.596H36.218V136.336H27.056ZM27.056 138.874V140.116H36.218V138.874H27.056ZM27.056 141.43V142.672H36.218V141.43H27.056ZM28.478 145.552C27.362 146.488 25.148 147.658 23.33 148.306C23.726 148.63 24.284 149.188 24.572 149.53C26.39 148.846 28.604 147.694 30.044 146.596L28.478 145.552ZM26.426 133.672V144.778H28.064V135.04H35.444V144.778H37.154V133.672H26.426ZM42.662 135.076V136.678H58.556V135.076H42.662ZM47.054 141.538V142.978H55.406V141.538H47.054ZM54.812 138.478V147.532C54.812 147.784 54.722 147.874 54.416 147.892C54.092 147.892 53.012 147.91 51.932 147.856C52.166 148.306 52.4 149.026 52.472 149.494C53.984 149.494 54.992 149.494 55.64 149.224C56.306 148.954 56.486 148.468 56.486 147.55V138.478H54.812ZM48.422 132.808C47.486 136.3 45.434 140.08 42.284 142.222C42.608 142.546 43.148 143.14 43.4 143.536C46.784 141.142 48.944 137.146 50.168 133.204L48.422 132.808ZM46.964 144.544V145.984H55.406V144.544H46.964ZM46.946 138.478V139.99H55.244V138.478H46.946ZM46.028 138.478V143.248C46.028 144.94 45.866 146.92 44.354 148.324C44.678 148.558 45.344 149.278 45.56 149.638C47.396 148 47.738 145.336 47.738 143.266V138.478H46.028ZM61.526 134.608V136.066H77.402V134.608H61.526ZM65.81 138.118H73.262V139.468H65.81V138.118ZM64.1 136.93V140.656H75.044V136.93H64.1ZM62.102 141.538V149.512H63.758V142.96H76.376V141.538H62.102ZM75.188 141.538V147.856C75.188 148.072 75.08 148.126 74.846 148.144C74.63 148.144 73.73 148.162 72.992 148.126C73.19 148.468 73.424 148.99 73.496 149.368C74.702 149.386 75.566 149.368 76.124 149.188C76.7 148.972 76.898 148.63 76.898 147.856V141.538H75.188ZM68.24 133.132C68.51 133.924 68.87 134.986 69.014 135.616L70.814 135.112C70.652 134.518 70.256 133.492 69.95 132.718L68.24 133.132ZM66.422 143.842V145.066H71.732V146.47H66.422V147.694H73.244V143.842H66.422ZM65.504 143.842V148.522H67.088V143.842H65.504ZM84.746 133.978V135.418H90.668V133.978H84.746ZM84.854 132.754C84.008 134.698 82.37 137.002 79.922 138.676C80.318 138.928 80.894 139.54 81.182 139.936C83.81 137.974 85.574 135.49 86.744 133.078L84.854 132.754ZM83.198 137.074V138.622H96.374V137.074H83.198ZM86.492 140.134V141.61H92.918V140.134H86.492ZM85.646 140.134V146.884C85.646 148.882 86.42 149.386 88.886 149.386C89.426 149.386 93.098 149.386 93.674 149.386C95.924 149.386 96.482 148.63 96.734 145.84C96.266 145.732 95.546 145.462 95.15 145.192C95.024 147.442 94.826 147.838 93.584 147.838C92.756 147.838 89.624 147.838 88.958 147.838C87.572 147.838 87.32 147.676 87.32 146.866V140.134H85.646ZM92.414 140.134V140.368C92.288 142.87 92.144 143.842 91.892 144.112C91.748 144.256 91.586 144.274 91.298 144.274C91.01 144.274 90.254 144.256 89.462 144.184C89.714 144.598 89.876 145.21 89.912 145.678C90.794 145.714 91.658 145.714 92.108 145.66C92.612 145.624 92.972 145.498 93.296 145.138C93.71 144.688 93.89 143.518 94.052 140.764C94.07 140.566 94.088 140.134 94.088 140.134H92.414ZM82.334 137.074V140.53C82.334 142.906 82.1 146.146 79.904 148.45C80.264 148.648 80.948 149.242 81.218 149.584C83.576 147.1 84.026 143.23 84.026 140.548V137.074H82.334ZM90.074 133.978V134.32C89.75 135.22 88.976 136.678 88.292 137.56C88.688 137.776 89.264 138.136 89.624 138.406C90.416 137.434 91.406 135.904 92.018 134.698L90.776 133.888L90.488 133.978H90.074ZM99.596 133.528V149.476H101.036V135.058H103.484V133.528H99.596ZM103.07 133.528V133.996C102.782 135.184 102.224 137.398 101.684 139C102.764 140.368 102.98 141.574 102.98 142.492C102.98 143.032 102.908 143.482 102.674 143.662C102.53 143.77 102.368 143.824 102.188 143.824C101.936 143.842 101.648 143.842 101.324 143.806C101.558 144.238 101.684 144.886 101.702 145.3C102.08 145.3 102.494 145.3 102.8 145.264C103.178 145.21 103.484 145.102 103.736 144.904C104.24 144.508 104.438 143.734 104.438 142.672C104.438 141.592 104.186 140.296 103.088 138.838C103.61 137.398 104.186 135.598 104.636 134.086L103.574 133.474L103.34 133.528H103.07ZM106.994 136.858V138.19H112.358V136.858H106.994ZM106.274 140.512H107.876V142.582H106.274V140.512ZM105.014 139.324V143.77H109.19V139.324H105.014ZM111.458 140.512H113.132V142.582H111.458V140.512ZM110.18 139.324V143.77H114.482V139.324H110.18ZM106.508 144.076C105.932 145.984 104.744 147.532 103.124 148.486C103.448 148.738 104.006 149.296 104.24 149.584C105.932 148.432 107.3 146.632 108.002 144.4L106.508 144.076ZM106.4 146.434C107.156 146.938 108.11 147.694 108.542 148.198L109.442 147.064C108.974 146.578 108.002 145.894 107.246 145.426L106.4 146.434ZM111.512 144.058C111.152 145.966 110.234 147.514 108.776 148.45C109.118 148.684 109.676 149.26 109.892 149.53C111.476 148.396 112.574 146.596 113.06 144.292L111.512 144.058ZM111.152 146.524C112.34 147.316 113.852 148.504 114.59 149.278L115.616 148.108C114.86 147.352 113.294 146.236 112.142 145.498L111.152 146.524ZM109.118 132.628C108.092 134.32 106.148 136.066 103.988 137.164C104.33 137.434 104.888 138.01 105.122 138.334C107.39 137.092 109.478 135.274 110.756 133.204L109.118 132.628ZM109.82 133.222L108.614 134.014C110.108 135.616 112.718 137.326 114.986 138.316C115.112 137.866 115.418 137.146 115.706 136.732C113.6 136.012 111.062 134.59 109.82 133.222ZM24.95 164.748C24.68 166.188 24.194 167.664 23.456 168.636C23.852 168.816 24.518 169.158 24.824 169.392C25.526 168.33 26.156 166.674 26.48 165.036L24.95 164.748ZM25.328 166.314L24.68 167.7H30.71V166.314H25.328ZM23.456 169.464V170.886H30.998V169.464H23.456ZM26.93 166.872V168.888C26.93 170.418 26.678 172.794 23.42 174.396C23.798 174.684 24.302 175.188 24.554 175.53C28.046 173.604 28.514 170.868 28.514 168.924V166.872H26.93ZM28.064 170.58L27.146 171.354C27.758 171.93 29.162 173.478 29.702 174.18L30.674 172.848C30.296 172.452 28.586 170.94 28.064 170.58ZM24.446 158.88V162.498C24.446 164.1 24.878 164.712 26.588 164.712C26.948 164.712 28.766 164.712 29.216 164.712C29.792 164.712 30.422 164.694 30.728 164.586C30.674 164.208 30.638 163.596 30.584 163.146C30.26 163.236 29.576 163.272 29.162 163.272C28.73 163.272 27.056 163.272 26.66 163.272C26.192 163.272 26.102 163.074 26.102 162.516V158.88H24.446ZM31.502 159.384V160.716H38.522V159.384H31.502ZM37.982 159.384V159.672C37.352 160.698 35.948 162.012 34.634 162.768C34.922 163.02 35.372 163.506 35.588 163.812C37.1 162.912 38.684 161.418 39.656 159.96L38.648 159.294L38.324 159.384H37.982ZM32.258 162.588C33.86 163.344 35.912 164.532 36.92 165.324L38 164.154C36.92 163.344 34.832 162.21 33.266 161.544L32.258 162.588ZM31.178 165.144V166.548H38.738V165.144H31.178ZM38.432 165.144V165.36C38.216 166.332 37.856 167.52 37.496 168.258L38.738 168.636C39.17 167.808 39.602 166.494 39.944 165.342L38.9 165.072L38.666 165.144H38.432ZM34.652 165.558V173.712L36.182 174.432V165.558H34.652ZM35.282 169.338V170.76H39.35V169.338H35.282ZM33.068 170.148L32.042 170.544C33.122 174.504 35.174 175.314 37.766 175.314H39.656C39.71 174.918 39.908 174.252 40.106 173.91C39.62 173.91 38.216 173.91 37.874 173.91C35.822 173.91 33.95 173.352 33.068 170.148ZM31.916 167.61C31.844 170.67 31.466 173.136 29.936 174.666C30.296 174.864 30.98 175.368 31.232 175.602C32.798 173.802 33.32 171.174 33.464 167.664L31.916 167.61ZM25.562 160.248V161.598H30.548V160.248H25.562ZM50.33 159.762V160.932H57.206V159.762H50.33ZM45.02 161.832V163.074H57.296V161.832H45.02ZM49.556 158.808V162.642H51.266V158.808H49.556ZM43.94 161.832V166.404C43.94 168.834 43.778 172.218 42.158 174.576C42.554 174.72 43.292 175.17 43.598 175.44C45.326 172.92 45.596 169.086 45.596 166.404V161.832H43.94ZM56.738 161.832V162.048C56.558 162.786 56.234 163.65 55.946 164.244L57.386 164.712C57.782 164.046 58.232 163.02 58.538 162.084L57.296 161.742L57.008 161.832H56.738ZM51.086 167.286V170.616H52.634V167.286H51.086ZM48.458 169.428H55.496V170.22H48.458V169.428ZM48.458 167.808H55.496V168.582H48.458V167.808ZM46.892 166.944V171.102H57.116V166.944H46.892ZM48.422 171.75V173.46C48.422 174.828 48.872 175.206 50.708 175.206C51.086 175.206 53.21 175.206 53.606 175.206C54.92 175.206 55.37 174.828 55.532 173.262C55.1 173.19 54.488 172.992 54.164 172.776C54.11 173.784 54.002 173.91 53.426 173.91C52.958 173.91 51.23 173.91 50.87 173.91C50.096 173.91 49.97 173.874 49.97 173.46V171.75H48.422ZM46.676 171.84C46.298 172.632 45.668 173.604 45.02 174.18L46.298 174.99C46.964 174.306 47.54 173.298 47.936 172.47L46.676 171.84ZM50.438 171.606C51.032 172.11 51.806 172.848 52.184 173.298L53.246 172.47C52.85 172.038 52.04 171.336 51.464 170.868L50.438 171.606ZM55.478 172.164C56.09 173.01 56.918 174.18 57.332 174.864L58.718 174.18C58.268 173.532 57.386 172.434 56.792 171.606L55.478 172.164ZM46.208 163.938L46.262 165.09L50.582 164.856L50.528 163.74L46.208 163.938ZM49.592 162.66V164.604C49.592 165.756 49.916 166.332 51.464 166.332C51.95 166.332 54.686 166.332 55.298 166.332C56.018 166.332 56.828 166.314 57.206 166.206C57.152 165.882 57.116 165.576 57.062 165.144C56.684 165.234 55.694 165.27 55.154 165.27C54.596 165.27 52.31 165.27 51.806 165.27C51.194 165.27 51.122 165.09 51.122 164.622V162.66H49.592ZM50.438 163.74L50.456 164.694L55.46 164.442V163.524L50.438 163.74ZM66.458 162.714V164.01H77.528V162.714H66.458ZM67.304 167.682V168.924H76.718V167.682H67.304ZM66.566 170.13V171.444H77.348V170.13H66.566ZM70.76 158.826V172.992H72.38V158.826H70.76ZM67.538 160.266V161.58H74.882V165.198H67.43V166.53H76.394V160.266H67.538ZM61.58 159.87V161.382H65.684V159.87H61.58ZM62.984 165.018L62.858 166.512H65.648V165.018H62.984ZM65.054 165.018V165.324C64.64 169.878 63.308 172.83 61.058 174.396C61.418 174.612 62.048 175.206 62.3 175.512C64.604 173.784 66.098 170.436 66.62 165.216L65.666 164.982L65.36 165.018H65.054ZM62.984 167.79L61.724 168.24C63.434 174.018 66.908 175.116 72.074 175.116H77.24C77.33 174.666 77.618 173.91 77.87 173.568C76.808 173.586 72.974 173.586 72.128 173.586C67.682 173.586 64.406 172.722 62.984 167.79ZM62.192 167.196C62.192 166.872 63.362 166.35 63.362 166.35V166.332C64.46 164.82 65.684 162.624 66.692 160.338L65.648 159.636L65.036 159.906V159.996C64.316 162.012 63.092 164.154 62.696 164.712C62.336 165.306 61.868 165.756 61.508 165.846C61.724 166.188 62.066 166.854 62.192 167.196ZM80.606 163.596V164.82H86.852V163.596H80.606ZM83 163.974V167.772H84.566V163.974H83ZM80.39 167.682L80.606 169.068C82.334 168.816 84.674 168.492 86.906 168.15L86.852 166.836C84.476 167.178 82.028 167.502 80.39 167.682ZM89.408 163.866V165.252C89.408 166.314 88.958 167.412 86.69 168.24C86.996 168.438 87.572 168.96 87.788 169.248C90.254 168.276 90.848 166.728 90.848 165.288V163.866H89.408ZM92.468 163.506V167.106C92.468 168.168 92.576 168.492 92.846 168.762C93.116 169.014 93.548 169.122 93.944 169.122C94.16 169.122 94.592 169.122 94.826 169.122C95.114 169.122 95.474 169.068 95.69 168.96C95.96 168.834 96.122 168.618 96.248 168.33C96.338 168.024 96.428 167.286 96.446 166.602C96.068 166.476 95.6 166.242 95.312 166.008C95.294 166.638 95.276 167.124 95.24 167.34C95.204 167.556 95.132 167.664 95.078 167.7C95.006 167.754 94.88 167.772 94.772 167.772C94.646 167.772 94.466 167.772 94.376 167.772C94.286 167.772 94.196 167.754 94.142 167.7C94.07 167.628 94.07 167.43 94.07 167.124V163.506H92.468ZM80.3 169.95V171.318H96.518V169.95H80.3ZM87.554 168.852V175.494H89.21V168.852H87.554ZM87.194 166.152C88.652 166.8 90.668 167.772 91.694 168.384L92.306 167.232C91.262 166.674 89.246 165.756 87.806 165.162L87.194 166.152ZM87.5 163.506V164.658H93.008V163.506H87.5ZM82.55 159.834V161.148H88.238V159.834H82.55ZM89.894 159.834V161.148H96.644V159.834H89.894ZM82.784 158.664C82.19 159.906 81.146 161.13 80.048 161.94C80.39 162.228 80.966 162.804 81.218 163.11C82.352 162.138 83.558 160.626 84.296 159.114L82.784 158.664ZM90.074 158.664C89.588 159.978 88.67 161.238 87.608 162.066C87.968 162.3 88.598 162.822 88.886 163.092C89.966 162.138 91.028 160.608 91.64 159.078L90.074 158.664ZM83.756 161.706C84.296 162.246 84.98 163.02 85.304 163.506L86.456 162.606C86.114 162.12 85.412 161.4 84.854 160.896L83.756 161.706ZM91.622 161.652C92.162 162.174 92.792 162.876 93.098 163.344L94.322 162.462C93.998 162.012 93.332 161.346 92.792 160.878L91.622 161.652ZM85.088 171.57C84.062 172.578 82.1 173.46 80.282 173.856C80.66 174.198 81.164 174.846 81.398 175.26C83.324 174.684 85.34 173.496 86.492 172.11L85.088 171.57ZM90.326 172.506C91.928 173.226 94.016 174.36 95.06 175.116L96.266 173.928C95.168 173.172 93.044 172.11 91.442 171.462L90.326 172.506ZM107.768 158.808C107.192 161.508 106.148 164.1 104.672 165.702C105.032 165.918 105.698 166.404 105.968 166.674C107.462 164.874 108.65 162.084 109.316 159.114L107.768 158.808ZM113.906 161.742V162.12C113.564 169.914 113.186 172.758 112.628 173.406C112.412 173.658 112.25 173.73 111.962 173.73C111.62 173.73 110.936 173.712 110.198 173.64C110.468 174.108 110.63 174.828 110.666 175.314C111.458 175.368 112.232 175.368 112.718 175.296C113.294 175.206 113.654 175.026 114.05 174.486C114.752 173.586 115.112 170.706 115.49 162.552C115.508 162.336 115.526 161.742 115.526 161.742H113.906ZM107.93 161.742L107.174 163.326H114.608V161.742H107.93ZM109.514 162.246C108.794 165.342 107.138 168.78 105.032 170.436C105.482 170.688 106.022 171.084 106.364 171.408C108.362 169.608 110.018 166.026 110.774 162.876L109.514 162.246ZM112.052 162.39C111.206 167.106 109.262 171.912 106.13 174.162C106.598 174.396 107.21 174.828 107.534 175.17C110.54 172.722 112.502 167.79 113.402 163.02L112.052 162.39ZM98.858 168.726L99.29 170.364C101.144 169.806 103.592 169.05 105.86 168.33L105.644 166.836C103.178 167.556 100.586 168.312 98.858 168.726ZM102.17 158.826V175.512H103.736V158.826H102.17ZM99.866 159.852C99.686 162.03 99.344 164.298 98.714 165.792C99.056 165.954 99.704 166.35 99.956 166.548C100.622 164.946 101.072 162.48 101.324 160.086L99.866 159.852ZM100.154 162.408L99.848 164.046H105.446V162.408H100.154Z" fill="#828282"/>
<path d="M631.996 171.978V173.418H637.918V171.978H631.996ZM632.104 170.754C631.258 172.698 629.62 175.002 627.172 176.676C627.568 176.928 628.144 177.54 628.432 177.936C631.06 175.974 632.824 173.49 633.994 171.078L632.104 170.754ZM630.448 175.074V176.622H643.624V175.074H630.448ZM633.742 178.134V179.61H640.168V178.134H633.742ZM632.896 178.134V184.884C632.896 186.882 633.67 187.386 636.136 187.386C636.676 187.386 640.348 187.386 640.924 187.386C643.174 187.386 643.732 186.63 643.984 183.84C643.516 183.732 642.796 183.462 642.4 183.192C642.274 185.442 642.076 185.838 640.834 185.838C640.006 185.838 636.874 185.838 636.208 185.838C634.822 185.838 634.57 185.676 634.57 184.866V178.134H632.896ZM639.664 178.134V178.368C639.538 180.87 639.394 181.842 639.142 182.112C638.998 182.256 638.836 182.274 638.548 182.274C638.26 182.274 637.504 182.256 636.712 182.184C636.964 182.598 637.126 183.21 637.162 183.678C638.044 183.714 638.908 183.714 639.358 183.66C639.862 183.624 640.222 183.498 640.546 183.138C640.96 182.688 641.14 181.518 641.302 178.764C641.32 178.566 641.338 178.134 641.338 178.134H639.664ZM629.584 175.074V178.53C629.584 180.906 629.35 184.146 627.154 186.45C627.514 186.648 628.198 187.242 628.468 187.584C630.826 185.1 631.276 181.23 631.276 178.548V175.074H629.584ZM637.324 171.978V172.32C637 173.22 636.226 174.678 635.542 175.56C635.938 175.776 636.514 176.136 636.874 176.406C637.666 175.434 638.656 173.904 639.268 172.698L638.026 171.888L637.738 171.978H637.324ZM646.414 176.874V178.44H662.686V176.874H646.414ZM648.016 173.148V174.696H658.348V173.148H648.016ZM660.382 171.51C657.142 176.172 651.85 179.808 646.018 181.896C646.378 182.256 646.99 183.012 647.242 183.39C652.984 181.086 658.42 177.306 662.002 172.32L660.382 171.51ZM651.148 179.862V184.722C651.148 186.612 651.922 187.098 654.64 187.098C655.216 187.098 658.978 187.098 659.59 187.098C661.912 187.098 662.488 186.468 662.758 183.876C662.254 183.786 661.516 183.534 661.102 183.246C660.958 185.208 660.76 185.532 659.5 185.532C658.6 185.532 655.378 185.532 654.694 185.532C653.2 185.532 652.948 185.406 652.948 184.704V179.862H651.148ZM652.39 170.808V173.94H654.082V170.808H652.39ZM652.39 173.868V177.36H653.956V173.868H652.39ZM652.264 180.978V182.49H660.634V180.978H652.264ZM665.332 185.604V186.972H681.586V185.604H665.332ZM665.44 174.012V175.38H681.478V174.012H665.44ZM666.664 182.994V184.326H680.434V182.994H666.664ZM672.514 172.32V186.288H674.224V172.32H672.514ZM678.922 170.88C675.988 171.384 670.984 171.708 666.79 171.798C666.934 172.14 667.114 172.734 667.132 173.13C671.344 173.076 676.42 172.77 679.768 172.194L678.922 170.88ZM668.914 179.646H678.022V180.78H668.914V179.646ZM668.914 177.45H678.022V178.566H668.914V177.45ZM667.258 176.28V181.95H679.75V176.28H667.258ZM689.308 174.714V176.01H700.378V174.714H689.308ZM690.154 179.682V180.924H699.568V179.682H690.154ZM689.416 182.13V183.444H700.198V182.13H689.416ZM693.61 170.826V184.992H695.23V170.826H693.61ZM690.388 172.266V173.58H697.732V177.198H690.28V178.53H699.244V172.266H690.388ZM684.43 171.87V173.382H688.534V171.87H684.43ZM685.834 177.018L685.708 178.512H688.498V177.018H685.834ZM687.904 177.018V177.324C687.49 181.878 686.158 184.83 683.908 186.396C684.268 186.612 684.898 187.206 685.15 187.512C687.454 185.784 688.948 182.436 689.47 177.216L688.516 176.982L688.21 177.018H687.904ZM685.834 179.79L684.574 180.24C686.284 186.018 689.758 187.116 694.924 187.116H700.09C700.18 186.666 700.468 185.91 700.72 185.568C699.658 185.586 695.824 185.586 694.978 185.586C690.532 185.586 687.256 184.722 685.834 179.79ZM685.042 179.196C685.042 178.872 686.212 178.35 686.212 178.35V178.332C687.31 176.82 688.534 174.624 689.542 172.338L688.498 171.636L687.886 171.906V171.996C687.166 174.012 685.942 176.154 685.546 176.712C685.186 177.306 684.718 177.756 684.358 177.846C684.574 178.188 684.916 178.854 685.042 179.196Z" fill="#828282"/>
<path d="M620.35 241.374V242.868H631.996V241.374H620.35ZM621.178 237.396V238.908H631.204V237.396H621.178ZM618.568 245.532V247.062H633.922V245.532H618.568ZM625.246 238.044V246.378H627.028V238.044H625.246ZM621.268 231.33V232.914H626.938V231.33H621.268ZM625.21 231.33V232.284H625.696C627.514 234.804 630.52 237.378 633.544 238.8C633.796 238.332 634.354 237.63 634.696 237.27C631.744 236.1 628.72 233.742 627.1 231.33H625.21ZM625.498 231.33C623.86 233.634 620.53 236.262 617.74 237.504C618.136 237.864 618.568 238.458 618.802 238.872C621.61 237.414 624.958 234.66 626.74 232.194L625.498 231.33ZM642.526 238.782V240.15H647.332V238.782H642.526ZM642.526 241.878V243.246H647.368V241.878H642.526ZM638.926 245.01V246.594H651.382V245.01H638.926ZM637.864 235.542V247.53H639.502V237.108H650.59V247.53H652.318V235.542H637.864ZM641.77 236.55V245.73H643.3V236.55H641.77ZM646.666 236.55V245.694H648.214V236.55H646.666ZM643.984 232.68C643.876 233.76 643.552 235.272 643.282 236.262L644.83 236.676C645.19 235.776 645.586 234.39 645.982 233.112L643.984 232.68ZM637.072 231.942V233.562H653.164V231.942H637.072ZM657.898 230.808V247.512H659.608V230.808H657.898ZM656.314 234.246C656.188 235.722 655.864 237.72 655.396 238.926L656.692 239.376C657.142 238.044 657.466 235.938 657.556 234.426L656.314 234.246ZM659.5 234.246C659.986 235.236 660.508 236.532 660.688 237.324L661.93 236.712C661.732 235.956 661.192 234.696 660.67 233.742L659.5 234.246ZM663.064 231.636C662.704 234.066 662.056 236.514 661.03 238.062C661.444 238.242 662.218 238.62 662.56 238.854C663.532 237.162 664.288 234.552 664.72 231.906L663.064 231.636ZM663.352 234.552L662.848 236.172H671.704V234.552H663.352ZM666.07 230.898V246.216H667.78V230.898H666.07ZM662.38 239.574V241.176H671.308V239.574H662.38ZM661.03 245.28V246.918H672.19V245.28H661.03ZM680.452 233.22V234.768H691.216V233.22H680.452ZM681.982 239.394V240.726H689.578V239.394H681.982ZM681.982 242.364V243.714H689.578V242.364H681.982ZM684.844 230.826V247.404H686.482V230.826H684.844ZM680.956 236.334V247.512H682.54V237.792H689.596V236.334H680.956ZM688.948 236.334V245.73C688.948 245.928 688.894 245.982 688.714 245.982C688.516 246 687.958 246 687.328 245.982C687.544 246.396 687.742 247.044 687.796 247.476C688.768 247.476 689.488 247.458 689.956 247.206C690.442 246.936 690.55 246.504 690.55 245.766V236.334H688.948ZM687.256 231.726C688.192 232.23 689.29 232.986 689.83 233.562L690.838 232.572C690.28 231.996 689.146 231.276 688.192 230.826L687.256 231.726ZM676.744 239.754V247.44H678.328V238.044L676.744 239.754ZM674.872 233.958V235.434H679.102V233.958H674.872ZM678.112 238.296L677.284 238.998C677.806 239.682 679.102 241.59 679.57 242.436L680.524 241.32C680.146 240.816 678.544 238.764 678.112 238.296ZM678.634 233.958V234.282C677.842 236.856 676.024 239.808 674.26 241.446C674.53 241.698 674.962 242.454 675.124 242.85C677.032 240.924 679.102 237.612 680.146 234.426L679.264 233.886L678.976 233.958H678.634ZM679.822 237.432C679.516 238.044 678.886 238.998 678.472 239.556L679.246 240.15C679.75 239.664 680.308 238.89 680.902 238.188L679.822 237.432ZM676.042 231.546C676.6 232.284 677.23 233.256 677.518 233.904L678.94 233.166C678.652 232.554 677.986 231.618 677.392 230.916L676.042 231.546ZM699.676 245.442L699.892 247.098C702.304 246.936 705.724 246.684 708.928 246.432L708.946 244.902C705.562 245.136 701.98 245.334 699.676 245.442ZM706.696 243.588C707.56 244.848 708.478 246.54 708.802 247.62L710.314 246.954C709.954 245.856 709 244.218 708.118 242.976L706.696 243.588ZM701.872 239.268H707.686V241.41H701.872V239.268ZM700.378 237.882V242.814H709.234V237.882H700.378ZM703.942 236.244V245.82L705.562 245.748V236.244H703.942ZM694.474 239.862V241.41H698.542V239.862H694.474ZM697.966 239.862V240.132C697.768 243.876 697.534 245.334 697.174 245.694C697.012 245.856 696.85 245.892 696.544 245.892C696.238 245.892 695.482 245.892 694.69 245.82C694.96 246.234 695.14 246.9 695.176 247.368C696.022 247.422 696.85 247.422 697.318 247.368C697.858 247.314 698.236 247.17 698.596 246.756C699.1 246.18 699.352 244.596 699.604 240.564C699.622 240.348 699.64 239.862 699.64 239.862H697.966ZM694.222 235.902C694.078 237.666 693.79 239.952 693.52 241.41H695.104C695.32 240.006 695.572 237.72 695.734 235.902H694.222ZM694.564 235.902V237.45H699.442V231.78H693.808V233.328H697.858V235.902H694.564ZM705.778 233.058C706.876 234.246 708.136 235.902 708.676 236.964L709.972 236.118C709.396 235.056 708.1 233.472 706.984 232.338L705.778 233.058ZM700.558 236.568C700.558 236.28 701.494 235.794 701.494 235.794V235.758C702.628 234.678 703.924 232.986 704.896 231.312L703.114 230.898C702.448 232.41 701.314 233.958 700.954 234.354C700.612 234.768 700.306 235.056 699.982 235.11C700.198 235.506 700.468 236.262 700.558 236.568ZM700.558 236.568C701.08 236.37 701.89 236.298 708.388 235.74C708.28 235.398 708.154 234.822 708.118 234.408L701.404 234.93L700.522 235.434L700.558 236.568Z" fill="#828282"/>
<path d="M319.982 179.086V180.508H336.218V179.086H319.982ZM320.27 169.528V171.022H335.876V169.528H320.27ZM331.826 178.042C330.386 182.326 326.876 183.712 319.946 184.054C320.216 184.45 320.486 185.062 320.594 185.548C327.938 184.99 331.79 183.388 333.482 178.474L331.826 178.042ZM322.16 182.47C327.074 183.298 331.682 184.45 334.4 185.476L335.948 184.27C332.978 183.28 328.1 182.11 323.474 181.372L322.16 182.47ZM325.112 170.104V176.332H326.714V170.104H325.112ZM329.252 170.104V176.332H330.872V170.104H329.252ZM322.736 173.704H333.5V175.81H322.736V173.704ZM321.134 172.336V177.178H335.192V172.336H321.134ZM322.16 182.47H324.14C325.094 181.318 326.498 179.338 327.326 177.646L325.634 177.268C324.806 178.996 323.348 181.12 322.16 182.47ZM348.08 172.102V173.668H355.19V172.102H348.08ZM348.638 168.808C348.08 171.85 347.072 174.802 345.578 176.638C345.938 176.926 346.586 177.592 346.856 177.916C348.44 175.81 349.628 172.534 350.33 169.114L348.638 168.808ZM352.472 173.074C351.716 178.636 349.88 182.128 345.56 184.036C345.884 184.396 346.388 185.188 346.568 185.584C351.212 183.316 353.282 179.464 354.236 173.29L352.472 173.074ZM348.926 173.434L347.414 173.704C348.476 179.176 350.402 183.406 354.344 185.422C354.614 184.972 355.118 184.324 355.514 183.982C351.788 182.29 349.826 178.276 348.926 173.434ZM339.53 184.81C339.998 184.432 340.754 184.054 345.992 182.074C345.902 181.696 345.794 180.976 345.794 180.472L340.052 182.488L339.314 183.154L339.53 184.81ZM339.53 184.81C339.53 184.198 341.204 183.496 341.204 183.496V175.162H339.494V181.966C339.494 182.632 339.188 182.902 338.882 183.046C339.17 183.478 339.44 184.324 339.53 184.81ZM339.278 170.014V171.688H344.12V175.162H339.854V176.854H345.812V170.014H339.278ZM361.04 183.604V184.936H370.76V183.604H361.04ZM360.248 180.544V185.512H361.922V181.858H369.878V185.458H371.624V180.544H360.248ZM358.826 170.77V172.048H372.974V170.77H358.826ZM358.34 175.27V176.548H373.532V175.27H358.34ZM359.96 173.02V174.262H371.84V173.02H359.96ZM357.782 178.312V179.644H374.036V178.312H357.782ZM364.964 171.364V176.062H366.728V171.364H364.964ZM361.238 169.222C361.634 169.744 362.048 170.464 362.228 170.968L363.812 170.392C363.632 169.906 363.2 169.222 362.75 168.754L361.238 169.222ZM360.41 176.872C360.77 177.358 361.148 178.078 361.274 178.528L362.93 178.096C362.75 177.628 362.372 176.98 361.976 176.494L360.41 176.872ZM368.834 168.772C368.582 169.438 368.096 170.392 367.7 171.022L369.212 171.346C369.626 170.788 370.148 169.978 370.616 169.114L368.834 168.772ZM369.716 176.512C369.5 177.124 369.05 178.024 368.708 178.618L370.274 178.888C370.634 178.348 371.048 177.61 371.444 176.818L369.716 176.512Z" fill="white"/>
<path d="M445.996 169.546V185.476H447.508V171.076H450.172V169.546H445.996ZM449.758 169.546V169.996C449.38 171.184 448.714 173.398 448.066 174.982C449.362 176.35 449.686 177.556 449.686 178.51C449.686 179.05 449.578 179.5 449.326 179.68C449.182 179.788 448.984 179.824 448.768 179.842C448.516 179.86 448.192 179.86 447.832 179.806C448.066 180.238 448.192 180.886 448.21 181.3C448.624 181.318 449.056 181.3 449.416 181.264C449.812 181.21 450.118 181.102 450.406 180.904C450.946 180.508 451.198 179.752 451.198 178.69C451.18 177.574 450.892 176.278 449.578 174.802C450.19 173.416 450.874 171.634 451.396 170.122L450.298 169.474L450.046 169.546H449.758ZM452.746 171.112V172.552H456.04V171.112H452.746ZM456.67 168.898V174.73C456.67 176.314 457.03 176.782 458.542 176.782C458.83 176.782 459.964 176.782 460.288 176.782C461.476 176.782 461.908 176.206 462.052 174.136C461.602 174.028 460.954 173.758 460.612 173.506C460.558 175.054 460.486 175.324 460.108 175.324C459.892 175.324 458.992 175.324 458.812 175.324C458.398 175.324 458.344 175.252 458.344 174.73V168.898H456.67ZM455.374 176.404C455.212 177.034 454.87 177.916 454.6 178.528L455.914 178.942C456.292 178.402 456.76 177.592 457.228 176.8L455.374 176.404ZM452.152 177.97V185.548H453.844V179.32H459.154V185.476H460.918V177.97H452.152ZM453.016 180.76V182.038H460V180.76H453.016ZM453.016 183.55V184.9H459.982V183.55H453.016ZM451.72 177.16C452.098 176.908 452.674 176.71 456.22 175.81C456.13 175.486 456.022 174.892 456.004 174.46L452.296 175.288L451.612 175.828L451.72 177.16ZM451.72 177.16C451.72 176.62 453.484 176.062 453.484 176.062V168.916H451.81V174.694C451.81 175.324 451.504 175.468 451.198 175.558C451.432 175.936 451.666 176.71 451.72 177.16ZM457.318 171.13V172.57H461.602V171.13H457.318ZM474.148 169.492V170.95H477.388V169.492H474.148ZM471.916 176.944V178.402H478.486V176.944H471.916ZM466.246 173.128V174.622H471.124V173.128H466.246ZM466.246 176.8V178.312H471.088V176.8H466.246ZM473.914 178.276L472.546 178.636C473.86 182.074 476.272 184.468 479.926 185.494C480.16 185.062 480.628 184.378 480.988 184.036C477.496 183.244 475.066 181.138 473.914 178.276ZM464.104 181.012L464.374 182.614C466.318 182.308 468.964 181.894 471.448 181.462L471.376 180.004C468.694 180.382 465.94 180.796 464.104 181.012ZM470.404 168.664C469.252 169.276 467.344 170.014 465.634 170.482C465.832 170.842 466.102 171.418 466.21 171.778C468.01 171.31 470.152 170.68 471.772 169.942L470.404 168.664ZM473.158 169.492V171.688C473.158 172.984 472.906 174.55 471.142 175.702C471.466 175.918 472.096 176.494 472.33 176.8C474.31 175.486 474.724 173.398 474.724 171.724V169.492H473.158ZM478.126 176.944V177.214C477.226 181.102 474.364 183.28 470.656 184.144C470.998 184.486 471.376 185.152 471.538 185.602C475.624 184.45 478.648 182.074 479.8 177.25L478.738 176.89L478.45 176.944H478.126ZM465.598 170.482V185.224H467.236V171.04L465.598 170.482ZM476.92 169.492V173.884C476.92 175.324 477.19 175.882 478.63 175.882C478.846 175.882 479.584 175.882 479.836 175.882C480.196 175.882 480.574 175.882 480.808 175.792C480.754 175.432 480.718 174.874 480.682 174.478C480.466 174.532 480.07 174.568 479.818 174.568C479.62 174.568 478.972 174.568 478.774 174.568C478.54 174.568 478.486 174.406 478.486 173.92V169.492H476.92ZM485.398 168.808V185.512H487.108V168.808H485.398ZM483.814 172.246C483.688 173.722 483.364 175.72 482.896 176.926L484.192 177.376C484.642 176.044 484.966 173.938 485.056 172.426L483.814 172.246ZM487 172.246C487.486 173.236 488.008 174.532 488.188 175.324L489.43 174.712C489.232 173.956 488.692 172.696 488.17 171.742L487 172.246ZM490.564 169.636C490.204 172.066 489.556 174.514 488.53 176.062C488.944 176.242 489.718 176.62 490.06 176.854C491.032 175.162 491.788 172.552 492.22 169.906L490.564 169.636ZM490.852 172.552L490.348 174.172H499.204V172.552H490.852ZM493.57 168.898V184.216H495.28V168.898H493.57ZM489.88 177.574V179.176H498.808V177.574H489.88ZM488.53 183.28V184.918H499.69V183.28H488.53ZM507.952 171.22V172.768H518.716V171.22H507.952ZM509.482 177.394V178.726H517.078V177.394H509.482ZM509.482 180.364V181.714H517.078V180.364H509.482ZM512.344 168.826V185.404H513.982V168.826H512.344ZM508.456 174.334V185.512H510.04V175.792H517.096V174.334H508.456ZM516.448 174.334V183.73C516.448 183.928 516.394 183.982 516.214 183.982C516.016 184 515.458 184 514.828 183.982C515.044 184.396 515.242 185.044 515.296 185.476C516.268 185.476 516.988 185.458 517.456 185.206C517.942 184.936 518.05 184.504 518.05 183.766V174.334H516.448ZM514.756 169.726C515.692 170.23 516.79 170.986 517.33 171.562L518.338 170.572C517.78 169.996 516.646 169.276 515.692 168.826L514.756 169.726ZM504.244 177.754V185.44H505.828V176.044L504.244 177.754ZM502.372 171.958V173.434H506.602V171.958H502.372ZM505.612 176.296L504.784 176.998C505.306 177.682 506.602 179.59 507.07 180.436L508.024 179.32C507.646 178.816 506.044 176.764 505.612 176.296ZM506.134 171.958V172.282C505.342 174.856 503.524 177.808 501.76 179.446C502.03 179.698 502.462 180.454 502.624 180.85C504.532 178.924 506.602 175.612 507.646 172.426L506.764 171.886L506.476 171.958H506.134ZM507.322 175.432C507.016 176.044 506.386 176.998 505.972 177.556L506.746 178.15C507.25 177.664 507.808 176.89 508.402 176.188L507.322 175.432ZM503.542 169.546C504.1 170.284 504.73 171.256 505.018 171.904L506.44 171.166C506.152 170.554 505.486 169.618 504.892 168.916L503.542 169.546ZM527.176 183.442L527.392 185.098C529.804 184.936 533.224 184.684 536.428 184.432L536.446 182.902C533.062 183.136 529.48 183.334 527.176 183.442ZM534.196 181.588C535.06 182.848 535.978 184.54 536.302 185.62L537.814 184.954C537.454 183.856 536.5 182.218 535.618 180.976L534.196 181.588ZM529.372 177.268H535.186V179.41H529.372V177.268ZM527.878 175.882V180.814H536.734V175.882H527.878ZM531.442 174.244V183.82L533.062 183.748V174.244H531.442ZM521.974 177.862V179.41H526.042V177.862H521.974ZM525.466 177.862V178.132C525.268 181.876 525.034 183.334 524.674 183.694C524.512 183.856 524.35 183.892 524.044 183.892C523.738 183.892 522.982 183.892 522.19 183.82C522.46 184.234 522.64 184.9 522.676 185.368C523.522 185.422 524.35 185.422 524.818 185.368C525.358 185.314 525.736 185.17 526.096 184.756C526.6 184.18 526.852 182.596 527.104 178.564C527.122 178.348 527.14 177.862 527.14 177.862H525.466ZM521.722 173.902C521.578 175.666 521.29 177.952 521.02 179.41H522.604C522.82 178.006 523.072 175.72 523.234 173.902H521.722ZM522.064 173.902V175.45H526.942V169.78H521.308V171.328H525.358V173.902H522.064ZM533.278 171.058C534.376 172.246 535.636 173.902 536.176 174.964L537.472 174.118C536.896 173.056 535.6 171.472 534.484 170.338L533.278 171.058ZM528.058 174.568C528.058 174.28 528.994 173.794 528.994 173.794V173.758C530.128 172.678 531.424 170.986 532.396 169.312L530.614 168.898C529.948 170.41 528.814 171.958 528.454 172.354C528.112 172.768 527.806 173.056 527.482 173.11C527.698 173.506 527.968 174.262 528.058 174.568ZM528.058 174.568C528.58 174.37 529.39 174.298 535.888 173.74C535.78 173.398 535.654 172.822 535.618 172.408L528.904 172.93L528.022 173.434L528.058 174.568Z" fill="white"/>
<line x1="578" y1="120" x2="578" y2="237" stroke="#828282" stroke-width="2"/>
<line x1="577" y1="119" x2="595" y2="119" stroke="#828282" stroke-width="2"/>
<line x1="562" y1="177" x2="595" y2="177" stroke="#828282" stroke-width="2"/>
<line x1="577" y1="237" x2="595" y2="237" stroke="#828282" stroke-width="2"/>
<line x1="149" y1="54.0004" x2="148.955" y2="155" stroke="#828282" stroke-width="2"/>
<line x1="148" y1="55" x2="140" y2="55" stroke="#828282" stroke-width="2"/>
<line x1="148" y1="154" x2="140" y2="154" stroke="#828282" stroke-width="2"/>
<line x1="149" y1="103" x2="155" y2="103" stroke="#828282" stroke-width="2"/>
<line x1="407" y1="179" x2="422" y2="179" stroke="#828282" stroke-width="2"/>
<line x1="264.19" y1="81.413" x2="293.19" y2="41.413" stroke="#828282" stroke-width="2"/>
<line x1="262.793" y1="123.39" x2="292.793" y2="162.39" stroke="#828282" stroke-width="2"/>
</svg>
