<svg width="264" height="227" viewBox="0 0 264 227" fill="none" xmlns="http://www.w3.org/2000/svg">
<rect x="174.434" y="197.165" width="82.3471" height="28.6425" rx="14.3212" fill="white" stroke="#828282" stroke-width="1.19344"/>
<rect x="87.5157" y="197.165" width="82.3471" height="28.6425" rx="14.3212" fill="white" stroke="#828282" stroke-width="1.19344"/>
<rect x="0.596718" y="197.165" width="82.3471" height="28.6425" rx="14.3212" fill="white" stroke="#828282" stroke-width="1.19344"/>
<path d="M191.62 208.216V209.212H195.796V208.216H191.62ZM192.952 216.364V217.3H196.168V216.364H192.952ZM192.952 214.408V215.284H196.192V214.408H192.952ZM191.08 210.448V211.444H197.26V210.448H191.08ZM193.348 206.968V211.096H194.404V206.968H193.348ZM196.516 207.34C195.4 210.148 193.396 212.32 190.804 213.58C191.008 213.808 191.344 214.276 191.476 214.516C194.152 213.064 196.276 210.7 197.548 207.64L196.516 207.34ZM193.312 212.488H192.904L192.28 213.148V217.972H193.312V213.412H196.144V212.488H193.312ZM195.688 212.488V217.804H196.78V212.488H195.688ZM197.716 207.556V218.008H198.832V208.624H201.28V207.556H197.716ZM201.004 207.556V207.928C200.668 208.852 200.044 210.568 199.468 211.78C200.608 212.776 200.944 213.676 200.944 214.396C200.944 214.816 200.86 215.14 200.608 215.284C200.464 215.368 200.272 215.404 200.068 215.416C199.828 215.428 199.516 215.416 199.168 215.392C199.348 215.692 199.468 216.184 199.48 216.496C199.852 216.52 200.26 216.508 200.572 216.472C200.884 216.436 201.172 216.34 201.4 216.184C201.856 215.884 202.036 215.32 202.036 214.504C202.036 213.676 201.76 212.728 200.608 211.636C201.148 210.544 201.748 209.164 202.216 208.024L201.4 207.508L201.22 207.556H201.004ZM208.564 209.308V217.972H209.74V209.308H208.564ZM203.764 208.576V209.692H214.66V208.576H203.764ZM204.868 211.192V216.688H206.008V212.308H212.764V211.192H204.868ZM212.476 211.192V215.344C212.476 215.5 212.416 215.56 212.212 215.572C212.008 215.572 211.288 215.572 210.568 215.548C210.724 215.86 210.904 216.328 210.952 216.664C211.936 216.664 212.62 216.652 213.076 216.472C213.52 216.292 213.652 215.956 213.652 215.356V211.192H212.476ZM208.06 207.112C208.384 207.688 208.768 208.492 208.924 208.972L210.1 208.576C209.92 208.096 209.5 207.328 209.176 206.764L208.06 207.112ZM216.544 207.472V208.492H227.044V207.472H216.544ZM221.284 207.904V212.632C221.284 214.588 220.84 216.244 216.316 217.024C216.556 217.288 216.868 217.768 217 218.02C221.68 217.06 222.472 215.008 222.472 212.644V207.904H221.284ZM218.704 212.2H225.172V213.232H218.704V212.2ZM218.704 210.304H225.172V211.324H218.704V210.304ZM217.624 209.368V214.156H226.3V209.368H217.624ZM218.896 214.192L217.912 214.588C219.616 217.312 222.676 217.804 227.008 217.936C227.068 217.564 227.284 217.084 227.488 216.82C223.252 216.772 220.492 216.46 218.896 214.192ZM235.564 210.892V211.948H239.944V210.892H235.564ZM229.084 208.108V209.044H234.436V208.108H229.084ZM228.964 212.872V213.844H234.46V212.872H228.964ZM228.904 210.82V211.768H234.628V210.82H228.904ZM237.604 211.348V217.96H238.708V211.348H237.604ZM229.804 209.284C229.996 209.764 230.164 210.412 230.224 210.82L231.172 210.556C231.112 210.16 230.932 209.536 230.716 209.068L229.804 209.284ZM232.792 209.056C232.636 209.608 232.36 210.436 232.132 210.952L233.056 211.156C233.296 210.676 233.572 209.944 233.824 209.26L232.792 209.056ZM238.84 207.04C237.976 207.424 236.464 207.796 235.132 208.024C235.264 208.264 235.42 208.648 235.48 208.888C236.896 208.684 238.54 208.336 239.74 207.88L238.84 207.04ZM230.872 207.064C231.112 207.58 231.4 208.276 231.508 208.708L232.696 208.384C232.576 207.952 232.264 207.28 232 206.788L230.872 207.064ZM235.132 208.024V212.248C235.132 213.832 235.048 215.872 234.088 217.288C234.328 217.408 234.772 217.768 234.964 217.972C236.032 216.412 236.188 213.988 236.188 212.248V208.024H235.132ZM232.828 214.672C233.176 215.248 233.596 216.052 233.788 216.556L234.58 216.076C234.388 215.596 233.968 214.84 233.584 214.264L232.828 214.672ZM229.936 214.36C229.684 215.14 229.276 215.968 228.832 216.532C229.048 216.652 229.432 216.916 229.6 217.06C230.044 216.448 230.536 215.476 230.824 214.624L229.936 214.36ZM231.304 211.336V217.948H232.408V211.336H231.304Z" fill="#828282"/>
<path d="M107.164 207.652V208.612H111.112V207.652H107.164ZM107.236 206.836C106.672 208.132 105.58 209.668 103.948 210.784C104.212 210.952 104.596 211.36 104.788 211.624C106.54 210.316 107.716 208.66 108.496 207.052L107.236 206.836ZM106.132 209.716V210.748H114.916V209.716H106.132ZM108.328 211.756V212.74H112.612V211.756H108.328ZM107.764 211.756V216.256C107.764 217.588 108.28 217.924 109.924 217.924C110.284 217.924 112.732 217.924 113.116 217.924C114.616 217.924 114.988 217.42 115.156 215.56C114.844 215.488 114.364 215.308 114.1 215.128C114.016 216.628 113.884 216.892 113.056 216.892C112.504 216.892 110.416 216.892 109.972 216.892C109.048 216.892 108.88 216.784 108.88 216.244V211.756H107.764ZM112.276 211.756V211.912C112.192 213.58 112.096 214.228 111.928 214.408C111.832 214.504 111.724 214.516 111.532 214.516C111.34 214.516 110.836 214.504 110.308 214.456C110.476 214.732 110.584 215.14 110.608 215.452C111.196 215.476 111.772 215.476 112.072 215.44C112.408 215.416 112.648 215.332 112.864 215.092C113.14 214.792 113.26 214.012 113.368 212.176C113.38 212.044 113.392 211.756 113.392 211.756H112.276ZM105.556 209.716V212.02C105.556 213.604 105.4 215.764 103.936 217.3C104.176 217.432 104.632 217.828 104.812 218.056C106.384 216.4 106.684 213.82 106.684 212.032V209.716H105.556ZM110.716 207.652V207.88C110.5 208.48 109.984 209.452 109.528 210.04C109.792 210.184 110.176 210.424 110.416 210.604C110.944 209.956 111.604 208.936 112.012 208.132L111.184 207.592L110.992 207.652H110.716ZM116.776 210.916V211.96H127.624V210.916H116.776ZM117.844 208.432V209.464H124.732V208.432H117.844ZM126.088 207.34C123.928 210.448 120.4 212.872 116.512 214.264C116.752 214.504 117.16 215.008 117.328 215.26C121.156 213.724 124.78 211.204 127.168 207.88L126.088 207.34ZM119.932 212.908V216.148C119.932 217.408 120.448 217.732 122.26 217.732C122.644 217.732 125.152 217.732 125.56 217.732C127.108 217.732 127.492 217.312 127.672 215.584C127.336 215.524 126.844 215.356 126.568 215.164C126.472 216.472 126.34 216.688 125.5 216.688C124.9 216.688 122.752 216.688 122.296 216.688C121.3 216.688 121.132 216.604 121.132 216.136V212.908H119.932ZM120.76 206.872V208.96H121.888V206.872H120.76ZM120.76 208.912V211.24H121.804V208.912H120.76ZM120.676 213.652V214.66H126.256V213.652H120.676ZM129.388 216.736V217.648H140.224V216.736H129.388ZM129.46 209.008V209.92H140.152V209.008H129.46ZM130.276 214.996V215.884H139.456V214.996H130.276ZM134.176 207.88V217.192H135.316V207.88H134.176ZM138.448 206.92C136.492 207.256 133.156 207.472 130.36 207.532C130.456 207.76 130.576 208.156 130.588 208.42C133.396 208.384 136.78 208.18 139.012 207.796L138.448 206.92ZM131.776 212.764H137.848V213.52H131.776V212.764ZM131.776 211.3H137.848V212.044H131.776V211.3ZM130.672 210.52V214.3H139V210.52H130.672ZM145.372 209.476V210.34H152.752V209.476H145.372ZM145.936 212.788V213.616H152.212V212.788H145.936ZM145.444 214.42V215.296H152.632V214.42H145.444ZM148.24 206.884V216.328H149.32V206.884H148.24ZM146.092 207.844V208.72H150.988V211.132H146.02V212.02H151.996V207.844H146.092ZM142.12 207.58V208.588H144.856V207.58H142.12ZM143.056 211.012L142.972 212.008H144.832V211.012H143.056ZM144.436 211.012V211.216C144.16 214.252 143.272 216.22 141.772 217.264C142.012 217.408 142.432 217.804 142.6 218.008C144.136 216.856 145.132 214.624 145.48 211.144L144.844 210.988L144.64 211.012H144.436ZM143.056 212.86L142.216 213.16C143.356 217.012 145.672 217.744 149.116 217.744H152.56C152.62 217.444 152.812 216.94 152.98 216.712C152.272 216.724 149.716 216.724 149.152 216.724C146.188 216.724 144.004 216.148 143.056 212.86ZM142.528 212.464C142.528 212.248 143.308 211.9 143.308 211.9V211.888C144.04 210.88 144.856 209.416 145.528 207.892L144.832 207.424L144.424 207.604V207.664C143.944 209.008 143.128 210.436 142.864 210.808C142.624 211.204 142.312 211.504 142.072 211.564C142.216 211.792 142.444 212.236 142.528 212.464Z" fill="#828282"/>
<path d="M12.4 213.916V214.912H20.164V213.916H12.4ZM12.952 211.264V212.272H19.636V211.264H12.952ZM11.212 216.688V217.708H21.448V216.688H11.212ZM15.664 211.696V217.252H16.852V211.696H15.664ZM13.012 207.22V208.276H16.792V207.22H13.012ZM15.64 207.22V207.856H15.964C17.176 209.536 19.18 211.252 21.196 212.2C21.364 211.888 21.736 211.42 21.964 211.18C19.996 210.4 17.98 208.828 16.9 207.22H15.64ZM15.832 207.22C14.74 208.756 12.52 210.508 10.66 211.336C10.924 211.576 11.212 211.972 11.368 212.248C13.24 211.276 15.472 209.44 16.66 207.796L15.832 207.22ZM27.184 212.188V213.1H30.388V212.188H27.184ZM27.184 214.252V215.164H30.412V214.252H27.184ZM24.784 216.34V217.396H33.088V216.34H24.784ZM24.076 210.028V218.02H25.168V211.072H32.56V218.02H33.712V210.028H24.076ZM26.68 210.7V216.82H27.7V210.7H26.68ZM29.944 210.7V216.796H30.976V210.7H29.944ZM28.156 208.12C28.084 208.84 27.868 209.848 27.688 210.508L28.72 210.784C28.96 210.184 29.224 209.26 29.488 208.408L28.156 208.12ZM23.548 207.628V208.708H34.276V207.628H23.548ZM37.432 206.872V218.008H38.572V206.872H37.432ZM36.376 209.164C36.292 210.148 36.076 211.48 35.764 212.284L36.628 212.584C36.928 211.696 37.144 210.292 37.204 209.284L36.376 209.164ZM38.5 209.164C38.824 209.824 39.172 210.688 39.292 211.216L40.12 210.808C39.988 210.304 39.628 209.464 39.28 208.828L38.5 209.164ZM40.876 207.424C40.636 209.044 40.204 210.676 39.52 211.708C39.796 211.828 40.312 212.08 40.54 212.236C41.188 211.108 41.692 209.368 41.98 207.604L40.876 207.424ZM41.068 209.368L40.732 210.448H46.636V209.368H41.068ZM42.88 206.932V217.144H44.02V206.932H42.88ZM40.42 212.716V213.784H46.372V212.716H40.42ZM39.52 216.52V217.612H46.96V216.52H39.52ZM52.468 208.48V209.512H59.644V208.48H52.468ZM53.488 212.596V213.484H58.552V212.596H53.488ZM53.488 214.576V215.476H58.552V214.576H53.488ZM55.396 206.884V217.936H56.488V206.884H55.396ZM52.804 210.556V218.008H53.86V211.528H58.564V210.556H52.804ZM58.132 210.556V216.82C58.132 216.952 58.096 216.988 57.976 216.988C57.844 217 57.472 217 57.052 216.988C57.196 217.264 57.328 217.696 57.364 217.984C58.012 217.984 58.492 217.972 58.804 217.804C59.128 217.624 59.2 217.336 59.2 216.844V210.556H58.132ZM57.004 207.484C57.628 207.82 58.36 208.324 58.72 208.708L59.392 208.048C59.02 207.664 58.264 207.184 57.628 206.884L57.004 207.484ZM49.996 212.836V217.96H51.052V211.696L49.996 212.836ZM48.748 208.972V209.956H51.568V208.972H48.748ZM50.908 211.864L50.356 212.332C50.704 212.788 51.568 214.06 51.88 214.624L52.516 213.88C52.264 213.544 51.196 212.176 50.908 211.864ZM51.256 208.972V209.188C50.728 210.904 49.516 212.872 48.34 213.964C48.52 214.132 48.808 214.636 48.916 214.9C50.188 213.616 51.568 211.408 52.264 209.284L51.676 208.924L51.484 208.972H51.256ZM52.048 211.288C51.844 211.696 51.424 212.332 51.148 212.704L51.664 213.1C52 212.776 52.372 212.26 52.768 211.792L52.048 211.288ZM49.528 207.364C49.9 207.856 50.32 208.504 50.512 208.936L51.46 208.444C51.268 208.036 50.824 207.412 50.428 206.944L49.528 207.364ZM65.284 216.628L65.428 217.732C67.036 217.624 69.316 217.456 71.452 217.288L71.464 216.268C69.208 216.424 66.82 216.556 65.284 216.628ZM69.964 215.392C70.54 216.232 71.152 217.36 71.368 218.08L72.376 217.636C72.136 216.904 71.5 215.812 70.912 214.984L69.964 215.392ZM66.748 212.512H70.624V213.94H66.748V212.512ZM65.752 211.588V214.876H71.656V211.588H65.752ZM68.128 210.496V216.88L69.208 216.832V210.496H68.128ZM61.816 212.908V213.94H64.528V212.908H61.816ZM64.144 212.908V213.088C64.012 215.584 63.856 216.556 63.616 216.796C63.508 216.904 63.4 216.928 63.196 216.928C62.992 216.928 62.488 216.928 61.96 216.88C62.14 217.156 62.26 217.6 62.284 217.912C62.848 217.948 63.4 217.948 63.712 217.912C64.072 217.876 64.324 217.78 64.564 217.504C64.9 217.12 65.068 216.064 65.236 213.376C65.248 213.232 65.26 212.908 65.26 212.908H64.144ZM61.648 210.268C61.552 211.444 61.36 212.968 61.18 213.94H62.236C62.38 213.004 62.548 211.48 62.656 210.268H61.648ZM61.876 210.268V211.3H65.128V207.52H61.372V208.552H64.072V210.268H61.876ZM69.352 208.372C70.084 209.164 70.924 210.268 71.284 210.976L72.148 210.412C71.764 209.704 70.9 208.648 70.156 207.892L69.352 208.372ZM65.872 210.712C65.872 210.52 66.496 210.196 66.496 210.196V210.172C67.252 209.452 68.116 208.324 68.764 207.208L67.576 206.932C67.132 207.94 66.376 208.972 66.136 209.236C65.908 209.512 65.704 209.704 65.488 209.74C65.632 210.004 65.812 210.508 65.872 210.712ZM65.872 210.712C66.22 210.58 66.76 210.532 71.092 210.16C71.02 209.932 70.936 209.548 70.912 209.272L66.436 209.62L65.848 209.956L65.872 210.712Z" fill="#828282"/>
<line x1="217.297" y1="187.148" x2="42.2523" y2="187.148" stroke="#828282" stroke-width="1.88972"/>
<line x1="216.687" y1="186.91" x2="216.687" y2="197.651" stroke="#828282" stroke-width="1.19344"/>
<line x1="129.355" y1="177.252" x2="129.355" y2="196.944" stroke="#828282" stroke-width="1.19344"/>
<line x1="42.8489" y1="186.91" x2="42.8489" y2="197.651" stroke="#828282" stroke-width="1.19344"/>
<line x1="128.561" y1="139.829" x2="128.561" y2="148.78" stroke="#828282" stroke-width="1.19344"/>
<rect x="88.4243" y="148.578" width="82.9439" height="29.2392" rx="14.6196" fill="#F2994A" stroke="#F2994A" stroke-width="0.596718"/>
<path d="M98.664 158.364V168.984H99.672V159.384H101.448V158.364H98.664ZM101.172 158.364V158.664C100.92 159.456 100.476 160.932 100.044 161.988C100.908 162.9 101.124 163.704 101.124 164.34C101.124 164.7 101.052 165 100.884 165.12C100.788 165.192 100.656 165.216 100.512 165.228C100.344 165.24 100.128 165.24 99.888 165.204C100.044 165.492 100.128 165.924 100.14 166.2C100.416 166.212 100.704 166.2 100.944 166.176C101.208 166.14 101.412 166.068 101.604 165.936C101.964 165.672 102.132 165.168 102.132 164.46C102.12 163.716 101.928 162.852 101.052 161.868C101.46 160.944 101.916 159.756 102.264 158.748L101.532 158.316L101.364 158.364H101.172ZM103.164 159.408V160.368H105.36V159.408H103.164ZM105.78 157.932V161.82C105.78 162.876 106.02 163.188 107.028 163.188C107.22 163.188 107.976 163.188 108.192 163.188C108.984 163.188 109.272 162.804 109.368 161.424C109.068 161.352 108.636 161.172 108.408 161.004C108.372 162.036 108.324 162.216 108.072 162.216C107.928 162.216 107.328 162.216 107.208 162.216C106.932 162.216 106.896 162.168 106.896 161.82V157.932H105.78ZM104.916 162.936C104.808 163.356 104.58 163.944 104.4 164.352L105.276 164.628C105.528 164.268 105.84 163.728 106.152 163.2L104.916 162.936ZM102.768 163.98V169.032H103.896V164.88H107.436V168.984H108.612V163.98H102.768ZM103.344 165.84V166.692H108V165.84H103.344ZM103.344 167.7V168.6H107.988V167.7H103.344ZM102.48 163.44C102.732 163.272 103.116 163.14 105.48 162.54C105.42 162.324 105.348 161.928 105.336 161.64L102.864 162.192L102.408 162.552L102.48 163.44ZM102.48 163.44C102.48 163.08 103.656 162.708 103.656 162.708V157.944H102.54V161.796C102.54 162.216 102.336 162.312 102.132 162.372C102.288 162.624 102.444 163.14 102.48 163.44ZM106.212 159.42V160.38H109.068V159.42H106.212ZM117.432 158.328V159.3H119.592V158.328H117.432ZM115.944 163.296V164.268H120.324V163.296H115.944ZM112.164 160.752V161.748H115.416V160.752H112.164ZM112.164 163.2V164.208H115.392V163.2H112.164ZM117.276 164.184L116.364 164.424C117.24 166.716 118.848 168.312 121.284 168.996C121.44 168.708 121.752 168.252 121.992 168.024C119.664 167.496 118.044 166.092 117.276 164.184ZM110.736 166.008L110.916 167.076C112.212 166.872 113.976 166.596 115.632 166.308L115.584 165.336C113.796 165.588 111.96 165.864 110.736 166.008ZM114.936 157.776C114.168 158.184 112.896 158.676 111.756 158.988C111.888 159.228 112.068 159.612 112.14 159.852C113.34 159.54 114.768 159.12 115.848 158.628L114.936 157.776ZM116.772 158.328V159.792C116.772 160.656 116.604 161.7 115.428 162.468C115.644 162.612 116.064 162.996 116.22 163.2C117.54 162.324 117.816 160.932 117.816 159.816V158.328H116.772ZM120.084 163.296V163.476C119.484 166.068 117.576 167.52 115.104 168.096C115.332 168.324 115.584 168.768 115.692 169.068C118.416 168.3 120.432 166.716 121.2 163.5L120.492 163.26L120.3 163.296H120.084ZM111.732 158.988V168.816H112.824V159.36L111.732 158.988ZM119.28 158.328V161.256C119.28 162.216 119.46 162.588 120.42 162.588C120.564 162.588 121.056 162.588 121.224 162.588C121.464 162.588 121.716 162.588 121.872 162.528C121.836 162.288 121.812 161.916 121.788 161.652C121.644 161.688 121.38 161.712 121.212 161.712C121.08 161.712 120.648 161.712 120.516 161.712C120.36 161.712 120.324 161.604 120.324 161.28V158.328H119.28ZM124.932 157.872V169.008H126.072V157.872H124.932ZM123.876 160.164C123.792 161.148 123.576 162.48 123.264 163.284L124.128 163.584C124.428 162.696 124.644 161.292 124.704 160.284L123.876 160.164ZM126 160.164C126.324 160.824 126.672 161.688 126.792 162.216L127.62 161.808C127.488 161.304 127.128 160.464 126.78 159.828L126 160.164ZM128.376 158.424C128.136 160.044 127.704 161.676 127.02 162.708C127.296 162.828 127.812 163.08 128.04 163.236C128.688 162.108 129.192 160.368 129.48 158.604L128.376 158.424ZM128.568 160.368L128.232 161.448H134.136V160.368H128.568ZM130.38 157.932V168.144H131.52V157.932H130.38ZM127.92 163.716V164.784H133.872V163.716H127.92ZM127.02 167.52V168.612H134.46V167.52H127.02ZM139.968 159.48V160.512H147.144V159.48H139.968ZM140.988 163.596V164.484H146.052V163.596H140.988ZM140.988 165.576V166.476H146.052V165.576H140.988ZM142.896 157.884V168.936H143.988V157.884H142.896ZM140.304 161.556V169.008H141.36V162.528H146.064V161.556H140.304ZM145.632 161.556V167.82C145.632 167.952 145.596 167.988 145.476 167.988C145.344 168 144.972 168 144.552 167.988C144.696 168.264 144.828 168.696 144.864 168.984C145.512 168.984 145.992 168.972 146.304 168.804C146.628 168.624 146.7 168.336 146.7 167.844V161.556H145.632ZM144.504 158.484C145.128 158.82 145.86 159.324 146.22 159.708L146.892 159.048C146.52 158.664 145.764 158.184 145.128 157.884L144.504 158.484ZM137.496 163.836V168.96H138.552V162.696L137.496 163.836ZM136.248 159.972V160.956H139.068V159.972H136.248ZM138.408 162.864L137.856 163.332C138.204 163.788 139.068 165.06 139.38 165.624L140.016 164.88C139.764 164.544 138.696 163.176 138.408 162.864ZM138.756 159.972V160.188C138.228 161.904 137.016 163.872 135.84 164.964C136.02 165.132 136.308 165.636 136.416 165.9C137.688 164.616 139.068 162.408 139.764 160.284L139.176 159.924L138.984 159.972H138.756ZM139.548 162.288C139.344 162.696 138.924 163.332 138.648 163.704L139.164 164.1C139.5 163.776 139.872 163.26 140.268 162.792L139.548 162.288ZM137.028 158.364C137.4 158.856 137.82 159.504 138.012 159.936L138.96 159.444C138.768 159.036 138.324 158.412 137.928 157.944L137.028 158.364ZM152.784 167.628L152.928 168.732C154.536 168.624 156.816 168.456 158.952 168.288L158.964 167.268C156.708 167.424 154.32 167.556 152.784 167.628ZM157.464 166.392C158.04 167.232 158.652 168.36 158.868 169.08L159.876 168.636C159.636 167.904 159 166.812 158.412 165.984L157.464 166.392ZM154.248 163.512H158.124V164.94H154.248V163.512ZM153.252 162.588V165.876H159.156V162.588H153.252ZM155.628 161.496V167.88L156.708 167.832V161.496H155.628ZM149.316 163.908V164.94H152.028V163.908H149.316ZM151.644 163.908V164.088C151.512 166.584 151.356 167.556 151.116 167.796C151.008 167.904 150.9 167.928 150.696 167.928C150.492 167.928 149.988 167.928 149.46 167.88C149.64 168.156 149.76 168.6 149.784 168.912C150.348 168.948 150.9 168.948 151.212 168.912C151.572 168.876 151.824 168.78 152.064 168.504C152.4 168.12 152.568 167.064 152.736 164.376C152.748 164.232 152.76 163.908 152.76 163.908H151.644ZM149.148 161.268C149.052 162.444 148.86 163.968 148.68 164.94H149.736C149.88 164.004 150.048 162.48 150.156 161.268H149.148ZM149.376 161.268V162.3H152.628V158.52H148.872V159.552H151.572V161.268H149.376ZM156.852 159.372C157.584 160.164 158.424 161.268 158.784 161.976L159.648 161.412C159.264 160.704 158.4 159.648 157.656 158.892L156.852 159.372ZM153.372 161.712C153.372 161.52 153.996 161.196 153.996 161.196V161.172C154.752 160.452 155.616 159.324 156.264 158.208L155.076 157.932C154.632 158.94 153.876 159.972 153.636 160.236C153.408 160.512 153.204 160.704 152.988 160.74C153.132 161.004 153.312 161.508 153.372 161.712ZM153.372 161.712C153.72 161.58 154.26 161.532 158.592 161.16C158.52 160.932 158.436 160.548 158.412 160.272L153.936 160.62L153.348 160.956L153.372 161.712Z" fill="white"/>
<rect x="94.1621" y="110.856" width="71.6062" height="29.8359" rx="14.918" fill="#EB5757"/>
<path d="M111.953 127.547V128.495H122.777V127.547H111.953ZM112.145 121.175V122.171H122.549V121.175H112.145ZM119.849 126.851C118.889 129.707 116.549 130.631 111.929 130.859C112.109 131.123 112.289 131.531 112.361 131.855C117.257 131.483 119.825 130.415 120.953 127.139L119.849 126.851ZM113.405 129.803C116.681 130.355 119.753 131.123 121.565 131.807L122.597 131.003C120.617 130.343 117.365 129.563 114.281 129.071L113.405 129.803ZM115.373 121.559V125.711H116.441V121.559H115.373ZM118.133 121.559V125.711H119.213V121.559H118.133ZM113.789 123.959H120.965V125.363H113.789V123.959ZM112.721 123.047V126.275H122.093V123.047H112.721ZM113.405 129.803H114.725C115.361 129.035 116.297 127.715 116.849 126.587L115.721 126.335C115.169 127.487 114.197 128.903 113.405 129.803ZM130.685 122.891V123.935H135.425V122.891H130.685ZM131.057 120.695C130.685 122.723 130.013 124.691 129.017 125.915C129.257 126.107 129.689 126.551 129.869 126.767C130.925 125.363 131.717 123.179 132.185 120.899L131.057 120.695ZM133.613 123.539C133.109 127.247 131.885 129.575 129.005 130.847C129.221 131.087 129.557 131.615 129.677 131.879C132.773 130.367 134.153 127.799 134.789 123.683L133.613 123.539ZM131.249 123.779L130.241 123.959C130.949 127.607 132.233 130.427 134.861 131.771C135.041 131.471 135.377 131.039 135.641 130.811C133.157 129.683 131.849 127.007 131.249 123.779ZM124.985 131.363C125.297 131.111 125.801 130.859 129.293 129.539C129.233 129.287 129.161 128.807 129.161 128.471L125.333 129.815L124.841 130.259L124.985 131.363ZM124.985 131.363C124.985 130.955 126.101 130.487 126.101 130.487V124.931H124.961V129.467C124.961 129.911 124.757 130.091 124.553 130.187C124.745 130.475 124.925 131.039 124.985 131.363ZM124.817 121.499V122.615H128.045V124.931H125.201V126.059H129.173V121.499H124.817ZM139.325 130.559V131.447H145.805V130.559H139.325ZM138.797 128.519V131.831H139.913V129.395H145.217V131.795H146.381V128.519H138.797ZM137.849 122.003V122.855H147.281V122.003H137.849ZM137.525 125.003V125.855H147.653V125.003H137.525ZM138.605 123.503V124.331H146.525V123.503H138.605ZM137.153 127.031V127.919H147.989V127.031H137.153ZM141.941 122.399V125.531H143.117V122.399H141.941ZM139.457 120.971C139.721 121.319 139.997 121.799 140.117 122.135L141.173 121.751C141.053 121.427 140.765 120.971 140.465 120.659L139.457 120.971ZM138.905 126.071C139.145 126.395 139.397 126.875 139.481 127.175L140.585 126.887C140.465 126.575 140.213 126.143 139.949 125.819L138.905 126.071ZM144.521 120.671C144.353 121.115 144.029 121.751 143.765 122.171L144.773 122.387C145.049 122.015 145.397 121.475 145.709 120.899L144.521 120.671ZM145.109 125.831C144.965 126.239 144.665 126.839 144.437 127.235L145.481 127.415C145.721 127.055 145.997 126.563 146.261 126.035L145.109 125.831Z" fill="white"/>
<line x1="154.026" y1="85.8032" x2="139.346" y2="111.23" stroke="#828282" stroke-width="1.19344"/>
<rect x="182.288" y="110.856" width="71.6062" height="29.8359" rx="14.918" fill="#BDBDBD"/>
<path d="M206.008 127.369V130.357C206.008 131.461 206.344 131.797 207.628 131.797C207.892 131.797 209.2 131.797 209.476 131.797C210.58 131.797 210.892 131.341 211.024 129.601C210.7 129.529 210.232 129.349 209.98 129.169C209.932 130.561 209.848 130.777 209.38 130.777C209.08 130.777 208.012 130.777 207.784 130.777C207.268 130.777 207.184 130.729 207.184 130.345V127.369H206.008ZM203.32 120.853C202.684 122.053 201.496 123.505 199.876 124.597C200.14 124.777 200.512 125.161 200.68 125.425C202.432 124.165 203.68 122.593 204.556 121.093L203.32 120.853ZM202.384 124.921H208.864V126.781H202.384V124.921ZM201.244 123.913V127.801H210.064V123.913H201.244ZM206.62 121.753V121.969C206.344 122.581 205.708 123.517 205.156 124.081C205.408 124.225 205.792 124.465 206.008 124.633C206.632 124.009 207.388 123.013 207.844 122.209L207.064 121.705L206.872 121.753H206.62ZM203.284 121.753L202.708 122.689H206.956V121.753H203.284ZM204.976 124.585C204.76 127.465 204.424 129.877 200.032 130.969C200.284 131.209 200.56 131.641 200.68 131.929C205.336 130.657 205.912 127.885 206.176 124.585H204.976ZM218.812 123.085V124.129H223.552V123.085H218.812ZM219.184 120.889C218.812 122.917 218.14 124.885 217.144 126.109C217.384 126.301 217.816 126.745 217.996 126.961C219.052 125.557 219.844 123.373 220.312 121.093L219.184 120.889ZM221.74 123.733C221.236 127.441 220.012 129.769 217.132 131.041C217.348 131.281 217.684 131.809 217.804 132.073C220.9 130.561 222.28 127.993 222.916 123.877L221.74 123.733ZM219.376 123.973L218.368 124.153C219.076 127.801 220.36 130.621 222.988 131.965C223.168 131.665 223.504 131.233 223.768 131.005C221.284 129.877 219.976 127.201 219.376 123.973ZM213.112 131.557C213.424 131.305 213.928 131.053 217.42 129.733C217.36 129.481 217.288 129.001 217.288 128.665L213.46 130.009L212.968 130.453L213.112 131.557ZM213.112 131.557C213.112 131.149 214.228 130.681 214.228 130.681V125.125H213.088V129.661C213.088 130.105 212.884 130.285 212.68 130.381C212.872 130.669 213.052 131.233 213.112 131.557ZM212.944 121.693V122.809H216.172V125.125H213.328V126.253H217.3V121.693H212.944ZM227.452 130.753V131.641H233.932V130.753H227.452ZM226.924 128.713V132.025H228.04V129.589H233.344V131.989H234.508V128.713H226.924ZM225.976 122.197V123.049H235.408V122.197H225.976ZM225.652 125.197V126.049H235.78V125.197H225.652ZM226.732 123.697V124.525H234.652V123.697H226.732ZM225.28 127.225V128.113H236.116V127.225H225.28ZM230.068 122.593V125.725H231.244V122.593H230.068ZM227.584 121.165C227.848 121.513 228.124 121.993 228.244 122.329L229.3 121.945C229.18 121.621 228.892 121.165 228.592 120.853L227.584 121.165ZM227.032 126.265C227.272 126.589 227.524 127.069 227.608 127.369L228.712 127.081C228.592 126.769 228.34 126.337 228.076 126.013L227.032 126.265ZM232.648 120.865C232.48 121.309 232.156 121.945 231.892 122.365L232.9 122.581C233.176 122.209 233.524 121.669 233.836 121.093L232.648 120.865ZM233.236 126.025C233.092 126.433 232.792 127.033 232.564 127.429L233.608 127.609C233.848 127.249 234.124 126.757 234.388 126.229L233.236 126.025Z" fill="white"/>
<line x1="193.67" y1="85.2065" x2="208.411" y2="110.738" stroke="#828282" stroke-width="1.19344"/>
<rect x="137.622" y="56.5317" width="71.6062" height="29.8359" rx="14.918" fill="#50B8B2"/>
<path d="M170.955 68.1627C170.811 69.0627 170.499 70.3347 170.211 71.1267L171.099 71.3547C171.387 70.5987 171.735 69.4107 172.035 68.4027L170.955 68.1627ZM166.371 68.4747C166.647 69.3867 166.887 70.5867 166.935 71.3787L167.895 71.1387C167.847 70.3587 167.595 69.1827 167.283 68.2587L166.371 68.4747ZM166.179 66.6147V67.6707H172.179V66.6147H166.179ZM165.735 71.7987V72.8787H172.419V71.7987H165.735ZM168.543 66.9747V77.1027H169.659V66.9747H168.543ZM161.823 69.6147V70.4907H165.267V69.6147H161.823ZM161.823 71.2107V72.0867H165.267V71.2107H161.823ZM161.343 67.9827V68.9067H165.759V67.9827H161.343ZM162.279 72.8427V73.7667H164.355V75.4827H162.279V76.4067H165.279V72.8427H162.279ZM161.823 72.8427V76.9467H162.723V72.8427H161.823ZM162.579 66.3507C162.879 66.8547 163.239 67.5627 163.395 68.0067L164.247 67.4907C164.067 67.0587 163.707 66.4107 163.383 65.9187L162.579 66.3507ZM176.487 66.0147C175.851 67.7907 174.759 69.5547 173.619 70.6827C173.811 70.9467 174.135 71.5587 174.243 71.8347C175.539 70.4787 176.775 68.3907 177.567 66.3507L176.487 66.0147ZM175.251 69.2067V77.0907H176.331V68.1387L176.319 68.1267L175.251 69.2067ZM177.963 71.9187V77.1027H179.091V72.9987H183.123V77.0547H184.287V71.9187H177.963ZM180.507 65.9667V72.4947H181.671V65.9667H180.507ZM177.339 68.5227V69.6147H184.995V68.5227H177.339ZM178.515 75.5187V76.5987H183.771V75.5187H178.515Z" fill="white"/>
<line x1="219.712" y1="52.3876" x2="130.378" y2="52.3475" stroke="#828282" stroke-width="1.45299"/>
<line x1="219.115" y1="51.6479" x2="219.115" y2="46.8742" stroke="#828282" stroke-width="1.19344"/>
<line x1="129.781" y1="52.8555" x2="129.781" y2="48.0817" stroke="#828282" stroke-width="1.19344"/>
<line x1="173.227" y1="52.9102" x2="173.227" y2="56.4905" stroke="#828282" stroke-width="1.19344"/>
<rect x="164.597" y="0.596718" width="98.8066" height="46.8066" rx="23.4033" fill="white" stroke="#828282" stroke-width="1.19344"/>
<path d="M190.428 19.1C191.748 19.7 193.152 20.468 193.968 21.032L194.892 20.192C194.004 19.652 192.504 18.896 191.16 18.308L190.428 19.1ZM183.876 17.372V18.392H194.748V17.372H183.876ZM186.204 12.224V13.064H192.312V12.224H186.204ZM186.204 13.916V14.744H192.312V13.916H186.204ZM186.204 15.62V16.448H192.312V15.62H186.204ZM187.152 18.368C186.408 18.992 184.932 19.772 183.72 20.204C183.984 20.42 184.356 20.792 184.548 21.02C185.76 20.564 187.236 19.796 188.196 19.064L187.152 18.368ZM185.784 10.448V17.852H186.876V11.36H191.796V17.852H192.936V10.448H185.784ZM196.608 11.384V12.452H207.204V11.384H196.608ZM199.536 15.692V16.652H205.104V15.692H199.536ZM204.708 13.652V19.688C204.708 19.856 204.648 19.916 204.444 19.928C204.228 19.928 203.508 19.94 202.788 19.904C202.944 20.204 203.1 20.684 203.148 20.996C204.156 20.996 204.828 20.996 205.26 20.816C205.704 20.636 205.824 20.312 205.824 19.7V13.652H204.708ZM200.448 9.872C199.824 12.2 198.456 14.72 196.356 16.148C196.572 16.364 196.932 16.76 197.1 17.024C199.356 15.428 200.796 12.764 201.612 10.136L200.448 9.872ZM199.476 17.696V18.656H205.104V17.696H199.476ZM199.464 13.652V14.66H204.996V13.652H199.464ZM198.852 13.652V16.832C198.852 17.96 198.744 19.28 197.736 20.216C197.952 20.372 198.396 20.852 198.54 21.092C199.764 20 199.992 18.224 199.992 16.844V13.652H198.852ZM209.184 11.072V12.044H219.768V11.072H209.184ZM212.04 13.412H217.008V14.312H212.04V13.412ZM210.9 12.62V15.104H218.196V12.62H210.9ZM209.568 15.692V21.008H210.672V16.64H219.084V15.692H209.568ZM218.292 15.692V19.904C218.292 20.048 218.22 20.084 218.064 20.096C217.92 20.096 217.32 20.108 216.828 20.084C216.96 20.312 217.116 20.66 217.164 20.912C217.968 20.924 218.544 20.912 218.916 20.792C219.3 20.648 219.432 20.42 219.432 19.904V15.692H218.292ZM213.66 10.088C213.84 10.616 214.08 11.324 214.176 11.744L215.376 11.408C215.268 11.012 215.004 10.328 214.8 9.812L213.66 10.088ZM212.448 17.228V18.044H215.988V18.98H212.448V19.796H216.996V17.228H212.448ZM211.836 17.228V20.348H212.892V17.228H211.836ZM224.664 10.652V11.612H228.612V10.652H224.664ZM224.736 9.836C224.172 11.132 223.08 12.668 221.448 13.784C221.712 13.952 222.096 14.36 222.288 14.624C224.04 13.316 225.216 11.66 225.996 10.052L224.736 9.836ZM223.632 12.716V13.748H232.416V12.716H223.632ZM225.828 14.756V15.74H230.112V14.756H225.828ZM225.264 14.756V19.256C225.264 20.588 225.78 20.924 227.424 20.924C227.784 20.924 230.232 20.924 230.616 20.924C232.116 20.924 232.488 20.42 232.656 18.56C232.344 18.488 231.864 18.308 231.6 18.128C231.516 19.628 231.384 19.892 230.556 19.892C230.004 19.892 227.916 19.892 227.472 19.892C226.548 19.892 226.38 19.784 226.38 19.244V14.756H225.264ZM229.776 14.756V14.912C229.692 16.58 229.596 17.228 229.428 17.408C229.332 17.504 229.224 17.516 229.032 17.516C228.84 17.516 228.336 17.504 227.808 17.456C227.976 17.732 228.084 18.14 228.108 18.452C228.696 18.476 229.272 18.476 229.572 18.44C229.908 18.416 230.148 18.332 230.364 18.092C230.64 17.792 230.76 17.012 230.868 15.176C230.88 15.044 230.892 14.756 230.892 14.756H229.776ZM223.056 12.716V15.02C223.056 16.604 222.9 18.764 221.436 20.3C221.676 20.432 222.132 20.828 222.312 21.056C223.884 19.4 224.184 16.82 224.184 15.032V12.716H223.056ZM228.216 10.652V10.88C228 11.48 227.484 12.452 227.028 13.04C227.292 13.184 227.676 13.424 227.916 13.604C228.444 12.956 229.104 11.936 229.512 11.132L228.684 10.592L228.492 10.652H228.216ZM234.564 10.352V20.984H235.524V11.372H237.156V10.352H234.564ZM236.88 10.352V10.664C236.688 11.456 236.316 12.932 235.956 14C236.676 14.912 236.82 15.716 236.82 16.328C236.82 16.688 236.772 16.988 236.616 17.108C236.52 17.18 236.412 17.216 236.292 17.216C236.124 17.228 235.932 17.228 235.716 17.204C235.872 17.492 235.956 17.924 235.968 18.2C236.22 18.2 236.496 18.2 236.7 18.176C236.952 18.14 237.156 18.068 237.324 17.936C237.66 17.672 237.792 17.156 237.792 16.448C237.792 15.728 237.624 14.864 236.892 13.892C237.24 12.932 237.624 11.732 237.924 10.724L237.216 10.316L237.06 10.352H236.88ZM239.496 12.572V13.46H243.072V12.572H239.496ZM239.016 15.008H240.084V16.388H239.016V15.008ZM238.176 14.216V17.18H240.96V14.216H238.176ZM242.472 15.008H243.588V16.388H242.472V15.008ZM241.62 14.216V17.18H244.488V14.216H241.62ZM239.172 17.384C238.788 18.656 237.996 19.688 236.916 20.324C237.132 20.492 237.504 20.864 237.66 21.056C238.788 20.288 239.7 19.088 240.168 17.6L239.172 17.384ZM239.1 18.956C239.604 19.292 240.24 19.796 240.528 20.132L241.128 19.376C240.816 19.052 240.168 18.596 239.664 18.284L239.1 18.956ZM242.508 17.372C242.268 18.644 241.656 19.676 240.684 20.3C240.912 20.456 241.284 20.84 241.428 21.02C242.484 20.264 243.216 19.064 243.54 17.528L242.508 17.372ZM242.268 19.016C243.06 19.544 244.068 20.336 244.56 20.852L245.244 20.072C244.74 19.568 243.696 18.824 242.928 18.332L242.268 19.016ZM240.912 9.752C240.228 10.88 238.932 12.044 237.492 12.776C237.72 12.956 238.092 13.34 238.248 13.556C239.76 12.728 241.152 11.516 242.004 10.136L240.912 9.752ZM241.38 10.148L240.576 10.676C241.572 11.744 243.312 12.884 244.824 13.544C244.908 13.244 245.112 12.764 245.304 12.488C243.9 12.008 242.208 11.06 241.38 10.148ZM184.8 30.832C184.62 31.792 184.296 32.776 183.804 33.424C184.068 33.544 184.512 33.772 184.716 33.928C185.184 33.22 185.604 32.116 185.82 31.024L184.8 30.832ZM185.052 31.876L184.62 32.8H188.64V31.876H185.052ZM183.804 33.976V34.924H188.832V33.976H183.804ZM186.12 32.248V33.592C186.12 34.612 185.952 36.196 183.78 37.264C184.032 37.456 184.368 37.792 184.536 38.02C186.864 36.736 187.176 34.912 187.176 33.616V32.248H186.12ZM186.876 34.72L186.264 35.236C186.672 35.62 187.608 36.652 187.968 37.12L188.616 36.232C188.364 35.968 187.224 34.96 186.876 34.72ZM184.464 26.92V29.332C184.464 30.4 184.752 30.808 185.892 30.808C186.132 30.808 187.344 30.808 187.644 30.808C188.028 30.808 188.448 30.796 188.652 30.724C188.616 30.472 188.592 30.064 188.556 29.764C188.34 29.824 187.884 29.848 187.608 29.848C187.32 29.848 186.204 29.848 185.94 29.848C185.628 29.848 185.568 29.716 185.568 29.344V26.92H184.464ZM189.168 27.256V28.144H193.848V27.256H189.168ZM193.488 27.256V27.448C193.068 28.132 192.132 29.008 191.256 29.512C191.448 29.68 191.748 30.004 191.892 30.208C192.9 29.608 193.956 28.612 194.604 27.64L193.932 27.196L193.716 27.256H193.488ZM189.672 29.392C190.74 29.896 192.108 30.688 192.78 31.216L193.5 30.436C192.78 29.896 191.388 29.14 190.344 28.696L189.672 29.392ZM188.952 31.096V32.032H193.992V31.096H188.952ZM193.788 31.096V31.24C193.644 31.888 193.404 32.68 193.164 33.172L193.992 33.424C194.28 32.872 194.568 31.996 194.796 31.228L194.1 31.048L193.944 31.096H193.788ZM191.268 31.372V36.808L192.288 37.288V31.372H191.268ZM191.688 33.892V34.84H194.4V33.892H191.688ZM190.212 34.432L189.528 34.696C190.248 37.336 191.616 37.876 193.344 37.876H194.604C194.64 37.612 194.772 37.168 194.904 36.94C194.58 36.94 193.644 36.94 193.416 36.94C192.048 36.94 190.8 36.568 190.212 34.432ZM189.444 32.74C189.396 34.78 189.144 36.424 188.124 37.444C188.364 37.576 188.82 37.912 188.988 38.068C190.032 36.868 190.38 35.116 190.476 32.776L189.444 32.74ZM185.208 27.832V28.732H188.532V27.832H185.208ZM201.72 27.508V28.288H206.304V27.508H201.72ZM198.18 28.888V29.716H206.364V28.888H198.18ZM201.204 26.872V29.428H202.344V26.872H201.204ZM197.46 28.888V31.936C197.46 33.556 197.352 35.812 196.272 37.384C196.536 37.48 197.028 37.78 197.232 37.96C198.384 36.28 198.564 33.724 198.564 31.936V28.888H197.46ZM205.992 28.888V29.032C205.872 29.524 205.656 30.1 205.464 30.496L206.424 30.808C206.688 30.364 206.988 29.68 207.192 29.056L206.364 28.828L206.172 28.888H205.992ZM202.224 32.524V34.744H203.256V32.524H202.224ZM200.472 33.952H205.164V34.48H200.472V33.952ZM200.472 32.872H205.164V33.388H200.472V32.872ZM199.428 32.296V35.068H206.244V32.296H199.428ZM200.448 35.5V36.64C200.448 37.552 200.748 37.804 201.972 37.804C202.224 37.804 203.64 37.804 203.904 37.804C204.78 37.804 205.08 37.552 205.188 36.508C204.9 36.46 204.492 36.328 204.276 36.184C204.24 36.856 204.168 36.94 203.784 36.94C203.472 36.94 202.32 36.94 202.08 36.94C201.564 36.94 201.48 36.916 201.48 36.64V35.5H200.448ZM199.284 35.56C199.032 36.088 198.612 36.736 198.18 37.12L199.032 37.66C199.476 37.204 199.86 36.532 200.124 35.98L199.284 35.56ZM201.792 35.404C202.188 35.74 202.704 36.232 202.956 36.532L203.664 35.98C203.4 35.692 202.86 35.224 202.476 34.912L201.792 35.404ZM205.152 35.776C205.56 36.34 206.112 37.12 206.388 37.576L207.312 37.12C207.012 36.688 206.424 35.956 206.028 35.404L205.152 35.776ZM198.972 30.292L199.008 31.06L201.888 30.904L201.852 30.16L198.972 30.292ZM201.228 29.44V30.736C201.228 31.504 201.444 31.888 202.476 31.888C202.8 31.888 204.624 31.888 205.032 31.888C205.512 31.888 206.052 31.876 206.304 31.804C206.268 31.588 206.244 31.384 206.208 31.096C205.956 31.156 205.296 31.18 204.936 31.18C204.564 31.18 203.04 31.18 202.704 31.18C202.296 31.18 202.248 31.06 202.248 30.748V29.44H201.228ZM201.792 30.16L201.804 30.796L205.14 30.628V30.016L201.792 30.16ZM212.472 29.476V30.34H219.852V29.476H212.472ZM213.036 32.788V33.616H219.312V32.788H213.036ZM212.544 34.42V35.296H219.732V34.42H212.544ZM215.34 26.884V36.328H216.42V26.884H215.34ZM213.192 27.844V28.72H218.088V31.132H213.12V32.02H219.096V27.844H213.192ZM209.22 27.58V28.588H211.956V27.58H209.22ZM210.156 31.012L210.072 32.008H211.932V31.012H210.156ZM211.536 31.012V31.216C211.26 34.252 210.372 36.22 208.872 37.264C209.112 37.408 209.532 37.804 209.7 38.008C211.236 36.856 212.232 34.624 212.58 31.144L211.944 30.988L211.74 31.012H211.536ZM210.156 32.86L209.316 33.16C210.456 37.012 212.772 37.744 216.216 37.744H219.66C219.72 37.444 219.912 36.94 220.08 36.712C219.372 36.724 216.816 36.724 216.252 36.724C213.288 36.724 211.104 36.148 210.156 32.86ZM209.628 32.464C209.628 32.248 210.408 31.9 210.408 31.9V31.888C211.14 30.88 211.956 29.416 212.628 27.892L211.932 27.424L211.524 27.604V27.664C211.044 29.008 210.228 30.436 209.964 30.808C209.724 31.204 209.412 31.504 209.172 31.564C209.316 31.792 209.544 32.236 209.628 32.464ZM221.904 30.064V30.88H226.068V30.064H221.904ZM223.5 30.316V32.848H224.544V30.316H223.5ZM221.76 32.788L221.904 33.712C223.056 33.544 224.616 33.328 226.104 33.1L226.068 32.224C224.484 32.452 222.852 32.668 221.76 32.788ZM227.772 30.244V31.168C227.772 31.876 227.472 32.608 225.96 33.16C226.164 33.292 226.548 33.64 226.692 33.832C228.336 33.184 228.732 32.152 228.732 31.192V30.244H227.772ZM229.812 30.004V32.404C229.812 33.112 229.884 33.328 230.064 33.508C230.244 33.676 230.532 33.748 230.796 33.748C230.94 33.748 231.228 33.748 231.384 33.748C231.576 33.748 231.816 33.712 231.96 33.64C232.14 33.556 232.248 33.412 232.332 33.22C232.392 33.016 232.452 32.524 232.464 32.068C232.212 31.984 231.9 31.828 231.708 31.672C231.696 32.092 231.684 32.416 231.66 32.56C231.636 32.704 231.588 32.776 231.552 32.8C231.504 32.836 231.42 32.848 231.348 32.848C231.264 32.848 231.144 32.848 231.084 32.848C231.024 32.848 230.964 32.836 230.928 32.8C230.88 32.752 230.88 32.62 230.88 32.416V30.004H229.812ZM221.7 34.3V35.212H232.512V34.3H221.7ZM226.536 33.568V37.996H227.64V33.568H226.536ZM226.296 31.768C227.268 32.2 228.612 32.848 229.296 33.256L229.704 32.488C229.008 32.116 227.664 31.504 226.704 31.108L226.296 31.768ZM226.5 30.004V30.772H230.172V30.004H226.5ZM223.2 27.556V28.432H226.992V27.556H223.2ZM228.096 27.556V28.432H232.596V27.556H228.096ZM223.356 26.776C222.96 27.604 222.264 28.42 221.532 28.96C221.76 29.152 222.144 29.536 222.312 29.74C223.068 29.092 223.872 28.084 224.364 27.076L223.356 26.776ZM228.216 26.776C227.892 27.652 227.28 28.492 226.572 29.044C226.812 29.2 227.232 29.548 227.424 29.728C228.144 29.092 228.852 28.072 229.26 27.052L228.216 26.776ZM224.004 28.804C224.364 29.164 224.82 29.68 225.036 30.004L225.804 29.404C225.576 29.08 225.108 28.6 224.736 28.264L224.004 28.804ZM229.248 28.768C229.608 29.116 230.028 29.584 230.232 29.896L231.048 29.308C230.832 29.008 230.388 28.564 230.028 28.252L229.248 28.768ZM224.892 35.38C224.208 36.052 222.9 36.64 221.688 36.904C221.94 37.132 222.276 37.564 222.432 37.84C223.716 37.456 225.06 36.664 225.828 35.74L224.892 35.38ZM228.384 36.004C229.452 36.484 230.844 37.24 231.54 37.744L232.344 36.952C231.612 36.448 230.196 35.74 229.128 35.308L228.384 36.004ZM240.012 26.872C239.628 28.672 238.932 30.4 237.948 31.468C238.188 31.612 238.632 31.936 238.812 32.116C239.808 30.916 240.6 29.056 241.044 27.076L240.012 26.872ZM244.104 28.828V29.08C243.876 34.276 243.624 36.172 243.252 36.604C243.108 36.772 243 36.82 242.808 36.82C242.58 36.82 242.124 36.808 241.632 36.76C241.812 37.072 241.92 37.552 241.944 37.876C242.472 37.912 242.988 37.912 243.312 37.864C243.696 37.804 243.936 37.684 244.2 37.324C244.668 36.724 244.908 34.804 245.16 29.368C245.172 29.224 245.184 28.828 245.184 28.828H244.104ZM240.12 28.828L239.616 29.884H244.572V28.828H240.12ZM241.176 29.164C240.696 31.228 239.592 33.52 238.188 34.624C238.488 34.792 238.848 35.056 239.076 35.272C240.408 34.072 241.512 31.684 242.016 29.584L241.176 29.164ZM242.868 29.26C242.304 32.404 241.008 35.608 238.92 37.108C239.232 37.264 239.64 37.552 239.856 37.78C241.86 36.148 243.168 32.86 243.768 29.68L242.868 29.26ZM234.072 33.484L234.36 34.576C235.596 34.204 237.228 33.7 238.74 33.22L238.596 32.224C236.952 32.704 235.224 33.208 234.072 33.484ZM236.28 26.884V38.008H237.324V26.884H236.28ZM234.744 27.568C234.624 29.02 234.396 30.532 233.976 31.528C234.204 31.636 234.636 31.9 234.804 32.032C235.248 30.964 235.548 29.32 235.716 27.724L234.744 27.568ZM234.936 29.272L234.732 30.364H238.464V29.272H234.936Z" fill="#828282"/>
<rect x="61.5967" y="0.596718" width="98.8066" height="46.8066" rx="23.4033" fill="white" stroke="#828282" stroke-width="1.19344"/>
<path d="M74.016 16.676L74.304 17.828C75.456 17.54 76.956 17.156 78.348 16.772L78.228 15.728C76.692 16.1 75.084 16.472 74.016 16.676ZM76.02 9.884V21.008H77.112V9.884H76.02ZM74.628 10.772C74.496 12.26 74.244 13.808 73.812 14.816C74.028 14.888 74.448 15.044 74.64 15.14C75.048 14.096 75.336 12.5 75.504 10.904L74.628 10.772ZM74.808 12.284L74.58 13.376H78.252V12.284H74.808ZM78.648 11.072V12.116H84.72V11.072H78.648ZM79.128 13.412V14.468H84.336V13.412H79.128ZM78.552 15.776V16.82H84.972V15.776H78.552ZM81.072 9.86V13.988H82.188V9.86H81.072ZM82.572 14.768V19.664C82.572 19.82 82.524 19.868 82.344 19.868C82.152 19.88 81.516 19.88 80.88 19.856C81.036 20.18 81.204 20.648 81.252 20.972C82.116 20.972 82.74 20.96 83.148 20.78C83.58 20.6 83.7 20.288 83.7 19.688V14.768H82.572ZM79.224 17.552C79.752 18.14 80.388 18.968 80.664 19.496L81.576 18.908C81.276 18.392 80.616 17.6 80.076 17.036L79.224 17.552ZM88.692 13.568V14.66H95.532V13.568H88.692ZM92.088 16.4V17.456H96.132V16.4H92.088ZM91.488 14.12V19.928L92.676 20.072V14.12H91.488ZM88.668 15.452C88.428 17.588 87.804 19.28 86.472 20.288C86.736 20.456 87.216 20.84 87.396 21.044C88.764 19.856 89.496 18.008 89.82 15.572L88.668 15.452ZM89.496 16.964L88.572 17.3C89.604 20.276 91.512 20.828 94.344 20.828H97.236C97.296 20.492 97.488 19.952 97.656 19.676C96.972 19.7 94.932 19.7 94.404 19.7C92.1 19.688 90.312 19.304 89.496 16.964ZM87.024 11.192V13.988H88.14V12.272H96.012V13.988H97.176V11.192H87.024ZM91.116 10.088C91.392 10.604 91.668 11.276 91.764 11.684L92.952 11.324C92.832 10.892 92.532 10.256 92.244 9.776L91.116 10.088ZM100.632 9.872V21.008H101.772V9.872H100.632ZM99.576 12.164C99.492 13.148 99.276 14.48 98.964 15.284L99.828 15.584C100.128 14.696 100.344 13.292 100.404 12.284L99.576 12.164ZM101.7 12.164C102.024 12.824 102.372 13.688 102.492 14.216L103.32 13.808C103.188 13.304 102.828 12.464 102.48 11.828L101.7 12.164ZM104.076 10.424C103.836 12.044 103.404 13.676 102.72 14.708C102.996 14.828 103.512 15.08 103.74 15.236C104.388 14.108 104.892 12.368 105.18 10.604L104.076 10.424ZM104.268 12.368L103.932 13.448H109.836V12.368H104.268ZM106.08 9.932V20.144H107.22V9.932H106.08ZM103.62 15.716V16.784H109.572V15.716H103.62ZM102.72 19.52V20.612H110.16V19.52H102.72ZM113.724 10.7V11.78H121.308V10.7H113.724ZM113.724 13.484V14.552H121.308V13.484H113.724ZM113.676 16.34V17.408H121.344V16.34H113.676ZM113.076 10.7V15.032C113.076 16.724 112.956 18.86 111.636 20.336C111.888 20.48 112.344 20.864 112.524 21.08C113.976 19.484 114.192 16.904 114.192 15.044V10.7H113.076ZM120.888 10.7V19.58C120.888 19.796 120.804 19.868 120.576 19.88C120.348 19.88 119.544 19.892 118.764 19.856C118.92 20.156 119.1 20.648 119.148 20.948C120.264 20.96 120.972 20.936 121.416 20.756C121.86 20.576 122.016 20.252 122.016 19.58V10.7H120.888ZM116.808 11.12V20.888H117.96V11.12H116.808ZM129.216 16.4C128.832 17.096 128.22 17.84 127.62 18.344C127.872 18.464 128.28 18.74 128.484 18.908C129.06 18.356 129.756 17.492 130.2 16.7L129.216 16.4ZM132.72 16.736C133.332 17.372 134.004 18.248 134.292 18.824L135.24 18.356C134.928 17.768 134.22 16.916 133.608 16.316L132.72 16.736ZM129.252 13.04V13.976H133.644V13.04H129.252ZM127.896 14.972V15.896H134.952V14.972H127.896ZM131.076 9.752C130.212 11.192 128.64 12.608 127.212 13.412C127.476 13.628 127.788 13.964 127.956 14.216C129.456 13.268 131.016 11.756 132 10.148L131.076 9.752ZM130.86 13.568V19.22H131.952V13.568H130.86ZM130.848 10.904C132.192 11.792 133.932 13.124 134.748 13.976L135.48 13.136C134.616 12.284 132.84 11.024 131.52 10.184L130.848 10.904ZM124.848 10.328C125.34 10.928 125.976 11.768 126.276 12.272L127.164 11.684C126.852 11.18 126.24 10.412 125.7 9.836L124.848 10.328ZM124.428 12.656V13.58H126.948V12.656H124.428ZM126.696 18.032L125.94 18.356C126.84 20.48 128.376 20.816 131.184 20.816C132.54 20.816 134.064 20.792 135.252 20.72C135.312 20.408 135.444 19.892 135.612 19.664C134.328 19.784 132.468 19.844 131.196 19.844C128.892 19.832 127.392 19.628 126.696 18.032ZM126.492 15.62V15.8C126.204 17.936 125.4 19.46 124.212 20.276C124.428 20.432 124.812 20.816 124.956 21.044C126.216 20.108 127.14 18.368 127.5 15.788L127.008 15.596L126.828 15.62H126.492ZM124.632 16.688C124.728 16.592 125.052 16.52 125.352 16.52H126.936V15.62H125.1L124.632 15.86V16.688ZM124.632 16.676C124.632 16.4 125.46 15.992 125.46 15.992C126.132 15.236 127.164 13.736 127.704 12.92L126.96 12.596L126.636 12.728V12.764C126.24 13.4 125.184 14.96 124.824 15.308C124.62 15.536 124.416 15.62 124.224 15.668C124.344 15.896 124.56 16.424 124.632 16.676ZM144.42 10.448V11.432H146.64V10.448H144.42ZM141.684 10.952V11.9H144.048V10.952H141.684ZM144.54 12.74V13.688H146.592V12.74H144.54ZM144.456 14.972V15.92H146.496V14.972H144.456ZM138.528 12.716V13.664H140.556V12.716H138.528ZM138.588 14.936V15.884H140.604V14.936H138.588ZM146.004 10.448C146.016 12.704 145.92 15.776 145.788 17.576H146.844C146.976 15.8 147.036 12.752 147.048 10.448H146.004ZM140.232 9.932C139.62 10.232 138.72 10.592 137.964 10.844C138.072 11.084 138.192 11.42 138.24 11.648C139.02 11.444 139.968 11.168 140.748 10.856L140.232 9.932ZM141.132 9.968V13.916H143.58V13.016H142.104V9.968H141.132ZM137.016 17.156V18.212H147.996V17.156H137.016ZM143.568 19.016C144.804 19.604 146.136 20.408 146.94 20.96L147.684 20.096C146.856 19.556 145.452 18.8 144.192 18.224L143.568 19.016ZM140.496 18.284C139.728 18.908 138.264 19.7 137.124 20.144C137.34 20.384 137.628 20.756 137.772 20.996C138.948 20.504 140.424 19.712 141.432 18.992L140.496 18.284ZM137.964 10.844L138.192 17.504H139.212L138.996 11.144L137.964 10.844ZM141.42 14.336C141.336 15.02 141.192 15.704 140.856 16.196C141.06 16.292 141.444 16.532 141.6 16.664C141.948 16.124 142.176 15.296 142.284 14.48L141.42 14.336ZM143.004 13.028V16.148C143.004 16.256 142.968 16.292 142.848 16.292C142.74 16.304 142.38 16.304 142.008 16.292C142.116 16.496 142.224 16.796 142.272 17.024C142.86 17.024 143.292 17.024 143.592 16.892C143.88 16.772 143.964 16.58 143.964 16.148V13.028H143.004ZM86.82 28.804V29.812H91.152V28.804H86.82ZM86.592 31.588V32.62H91.368V31.588H86.592ZM88.476 26.992V31.228C88.476 33.076 88.368 35.644 86.484 37.048C86.736 37.252 87.096 37.636 87.252 37.876C89.316 36.196 89.544 33.4 89.544 31.228V26.992H88.476ZM89.352 33.052L88.656 33.592C89.148 34.144 90.264 35.536 90.696 36.208L91.464 35.38C91.152 35.008 89.76 33.424 89.352 33.052ZM92.832 30.232H95.916V31.204H92.832V30.232ZM92.832 32.116H95.916V33.112H92.832V32.116ZM92.832 28.336H95.916V29.308H92.832V28.336ZM91.776 27.328V34.12H97.008V27.328H91.776ZM94.596 33.724V36.472C94.596 37.468 94.788 37.792 95.724 37.792C95.904 37.792 96.444 37.792 96.624 37.792C97.404 37.792 97.668 37.372 97.764 35.704C97.476 35.62 97.032 35.452 96.816 35.272C96.792 36.628 96.744 36.796 96.516 36.796C96.396 36.796 95.988 36.796 95.904 36.796C95.676 36.796 95.652 36.76 95.652 36.46V33.724H94.596ZM92.676 33.916C92.508 35.416 92.112 36.544 90.216 37.168C90.444 37.36 90.732 37.756 90.852 38.008C93 37.228 93.54 35.824 93.756 33.916H92.676ZM102.852 34.468V35.416H110.064V34.468H102.852ZM104.616 32.068H108.408V32.788H104.616V32.068ZM104.616 30.592H108.408V31.288H104.616V30.592ZM103.56 29.764V33.604H109.512V29.764H103.56ZM105.96 33.472C105.768 35.368 105.3 36.532 102.516 37.108C102.72 37.336 102.996 37.756 103.104 38.02C106.2 37.288 106.836 35.812 107.076 33.472H105.96ZM103.044 27.808V28.732H106.344V27.808H103.044ZM104.4 26.872V29.5H105.42V26.872H104.4ZM107.64 26.872V29.5H108.648V26.872H107.64ZM106.692 27.796V28.732H110.184V27.796H106.692ZM106.5 36.124C107.52 36.664 108.924 37.48 109.608 37.96L110.328 37.156C109.596 36.676 108.18 35.92 107.184 35.416L106.5 36.124ZM99.324 29.164V30.208H103.14V29.164H99.324ZM100.8 26.872V38.008H101.832V26.872H100.8ZM100.8 29.896C100.5 31.432 99.768 33.436 99.036 34.48C99.228 34.768 99.48 35.272 99.6 35.608C100.38 34.372 101.088 32.02 101.424 30.16L100.8 29.896ZM101.772 30.496L101.244 30.916C101.568 31.504 102.288 33.016 102.552 33.724L103.236 32.932C103.02 32.536 102.048 30.868 101.772 30.496ZM115.272 29.476V30.34H122.652V29.476H115.272ZM115.836 32.788V33.616H122.112V32.788H115.836ZM115.344 34.42V35.296H122.532V34.42H115.344ZM118.14 26.884V36.328H119.22V26.884H118.14ZM115.992 27.844V28.72H120.888V31.132H115.92V32.02H121.896V27.844H115.992ZM112.02 27.58V28.588H114.756V27.58H112.02ZM112.956 31.012L112.872 32.008H114.732V31.012H112.956ZM114.336 31.012V31.216C114.06 34.252 113.172 36.22 111.672 37.264C111.912 37.408 112.332 37.804 112.5 38.008C114.036 36.856 115.032 34.624 115.38 31.144L114.744 30.988L114.54 31.012H114.336ZM112.956 32.86L112.116 33.16C113.256 37.012 115.572 37.744 119.016 37.744H122.46C122.52 37.444 122.712 36.94 122.88 36.712C122.172 36.724 119.616 36.724 119.052 36.724C116.088 36.724 113.904 36.148 112.956 32.86ZM112.428 32.464C112.428 32.248 113.208 31.9 113.208 31.9V31.888C113.94 30.88 114.756 29.416 115.428 27.892L114.732 27.424L114.324 27.604V27.664C113.844 29.008 113.028 30.436 112.764 30.808C112.524 31.204 112.212 31.504 111.972 31.564C112.116 31.792 112.344 32.236 112.428 32.464ZM124.704 30.064V30.88H128.868V30.064H124.704ZM126.3 30.316V32.848H127.344V30.316H126.3ZM124.56 32.788L124.704 33.712C125.856 33.544 127.416 33.328 128.904 33.1L128.868 32.224C127.284 32.452 125.652 32.668 124.56 32.788ZM130.572 30.244V31.168C130.572 31.876 130.272 32.608 128.76 33.16C128.964 33.292 129.348 33.64 129.492 33.832C131.136 33.184 131.532 32.152 131.532 31.192V30.244H130.572ZM132.612 30.004V32.404C132.612 33.112 132.684 33.328 132.864 33.508C133.044 33.676 133.332 33.748 133.596 33.748C133.74 33.748 134.028 33.748 134.184 33.748C134.376 33.748 134.616 33.712 134.76 33.64C134.94 33.556 135.048 33.412 135.132 33.22C135.192 33.016 135.252 32.524 135.264 32.068C135.012 31.984 134.7 31.828 134.508 31.672C134.496 32.092 134.484 32.416 134.46 32.56C134.436 32.704 134.388 32.776 134.352 32.8C134.304 32.836 134.22 32.848 134.148 32.848C134.064 32.848 133.944 32.848 133.884 32.848C133.824 32.848 133.764 32.836 133.728 32.8C133.68 32.752 133.68 32.62 133.68 32.416V30.004H132.612ZM124.5 34.3V35.212H135.312V34.3H124.5ZM129.336 33.568V37.996H130.44V33.568H129.336ZM129.096 31.768C130.068 32.2 131.412 32.848 132.096 33.256L132.504 32.488C131.808 32.116 130.464 31.504 129.504 31.108L129.096 31.768ZM129.3 30.004V30.772H132.972V30.004H129.3ZM126 27.556V28.432H129.792V27.556H126ZM130.896 27.556V28.432H135.396V27.556H130.896ZM126.156 26.776C125.76 27.604 125.064 28.42 124.332 28.96C124.56 29.152 124.944 29.536 125.112 29.74C125.868 29.092 126.672 28.084 127.164 27.076L126.156 26.776ZM131.016 26.776C130.692 27.652 130.08 28.492 129.372 29.044C129.612 29.2 130.032 29.548 130.224 29.728C130.944 29.092 131.652 28.072 132.06 27.052L131.016 26.776ZM126.804 28.804C127.164 29.164 127.62 29.68 127.836 30.004L128.604 29.404C128.376 29.08 127.908 28.6 127.536 28.264L126.804 28.804ZM132.048 28.768C132.408 29.116 132.828 29.584 133.032 29.896L133.848 29.308C133.632 29.008 133.188 28.564 132.828 28.252L132.048 28.768ZM127.692 35.38C127.008 36.052 125.7 36.64 124.488 36.904C124.74 37.132 125.076 37.564 125.232 37.84C126.516 37.456 127.86 36.664 128.628 35.74L127.692 35.38ZM131.184 36.004C132.252 36.484 133.644 37.24 134.34 37.744L135.144 36.952C134.412 36.448 132.996 35.74 131.928 35.308L131.184 36.004Z" fill="#828282"/>
</svg>
