<svg width="29" height="30" viewBox="0 0 29 30" fill="none" xmlns="http://www.w3.org/2000/svg">
<path d="M21.1196 0.6225C21.2128 0.435703 21.3562 0.278542 21.5337 0.168603C21.7112 0.0586642 21.9158 0.000285526 22.1246 0H24.3746C24.5833 0.000285526 24.7879 0.0586642 24.9654 0.168603C25.1429 0.278542 25.2863 0.435703 25.3796 0.6225L26.8796 3.6225C26.9624 3.78798 27.0031 3.97133 26.9982 4.15632C26.9932 4.34131 26.9427 4.52221 26.8511 4.683L25.4996 7.05V15H27.3746C27.6729 15 27.9591 15.1185 28.1701 15.3295C28.381 15.5405 28.4996 15.8266 28.4996 16.125V18.75H17.9996V16.125C17.9996 15.8266 18.1181 15.5405 18.3291 15.3295C18.5401 15.1185 18.8262 15 19.1246 15H20.9996V7.05L19.6481 4.683C19.5562 4.52234 19.5054 4.3415 19.5002 4.15651C19.495 3.97152 19.5355 3.7881 19.6181 3.6225L21.1181 0.6225H21.1196ZM17.9996 21V24.75C17.9996 26.1424 18.5527 27.4777 19.5373 28.4623C20.5218 29.4469 21.8572 30 23.2496 30C24.642 30 25.9773 29.4469 26.9619 28.4623C27.9464 27.4777 28.4996 26.1424 28.4996 24.75V21H17.9996ZM10.2416 0.318C10.3935 0.215015 10.5684 0.150785 10.7509 0.130914C10.9334 0.111043 11.118 0.136134 11.2886 0.204C12.7591 0.787181 14.0311 1.78072 14.9529 3.06629C15.8748 4.35187 16.4078 5.87532 16.4884 7.45522C16.569 9.03512 16.1939 10.6049 15.4076 11.9776C14.6213 13.3504 13.4571 14.4682 12.0536 15.198V26.196C12.0536 27.2049 11.6528 28.1724 10.9394 28.8858C10.226 29.5992 9.25845 30 8.24957 30C7.24069 30 6.27312 29.5992 5.55974 28.8858C4.84635 28.1724 4.44557 27.2049 4.44557 26.196V15.198C3.04202 14.4682 1.8778 13.3504 1.09154 11.9776C0.30528 10.6049 -0.069884 9.03512 0.0107232 7.45522C0.0913303 5.87532 0.624312 4.35187 1.5462 3.06629C2.46809 1.78072 3.74003 0.787181 5.21057 0.204C5.38115 0.136489 5.56565 0.111718 5.748 0.131845C5.93034 0.151972 6.105 0.216386 6.25675 0.319475C6.4085 0.422564 6.53273 0.561199 6.61863 0.723299C6.70453 0.8854 6.74948 1.06605 6.74957 1.2495V6.75C6.74957 7.14782 6.90761 7.52936 7.18891 7.81066C7.47021 8.09196 7.85174 8.25 8.24957 8.25C8.64739 8.25 9.02892 8.09196 9.31023 7.81066C9.59153 7.52936 9.74957 7.14782 9.74957 6.75V1.2495C9.74957 1.06612 9.7944 0.88553 9.88015 0.72344C9.9659 0.56135 10.09 0.422679 10.2416 0.3195V0.318Z" fill="#016437"/>
</svg>
