<svg width="32" height="29" viewBox="0 0 32 29" fill="none" xmlns="http://www.w3.org/2000/svg">
<path d="M15.0211 0.379761C15.2652 0.15706 15.5775 0.0241987 15.9069 0.0029979C16.2362 -0.0182029 16.563 0.073517 16.8335 0.263094L16.9789 0.379761L32 14.0706H27.6364V27.1956C27.6363 27.5528 27.5055 27.8975 27.2688 28.1645C27.032 28.4314 26.7058 28.6019 26.352 28.6437L26.1818 28.6539H16.7273L20.3636 22.8206L15.2727 18.4456L21.0909 14.0706L17.4545 11.1539L18.1818 6.77893L13.8182 11.1539L17.4545 14.0706L10.1818 18.4456L15.6364 23.5498L10.9091 28.6539H5.81818C5.46192 28.6539 5.11806 28.5227 4.85182 28.2854C4.58559 28.048 4.4155 27.721 4.37382 27.3662L4.36364 27.1956V14.0706H0L15.0211 0.379761Z" fill="#016437"/>
</svg>
