<svg width="30" height="30" viewBox="0 0 30 30" fill="none" xmlns="http://www.w3.org/2000/svg">
<path d="M6.375 10.125C5.97718 10.125 5.59564 10.283 5.31434 10.5643C5.03304 10.8456 4.875 11.2272 4.875 11.625C4.875 12.0228 5.03304 12.4044 5.31434 12.6857C5.59564 12.967 5.97718 13.125 6.375 13.125C6.77282 13.125 7.15436 12.967 7.43566 12.6857C7.71696 12.4044 7.875 12.0228 7.875 11.625C7.875 11.2272 7.71696 10.8456 7.43566 10.5643C7.15436 10.283 6.77282 10.125 6.375 10.125ZM4.875 20.625C4.875 20.2272 5.03304 19.8456 5.31434 19.5643C5.59564 19.283 5.97718 19.125 6.375 19.125C6.77282 19.125 7.15436 19.283 7.43566 19.5643C7.71696 19.8456 7.875 20.2272 7.875 20.625C7.875 21.0228 7.71696 21.4044 7.43566 21.6857C7.15436 21.967 6.77282 22.125 6.375 22.125C5.97718 22.125 5.59564 21.967 5.31434 21.6857C5.03304 21.4044 4.875 21.0228 4.875 20.625ZM3.9375 0C2.89321 0 1.89169 0.414842 1.15327 1.15327C0.414842 1.89169 0 2.89321 0 3.9375V23.0625C0 25.2375 1.7625 27 3.9375 27H13.533C12.5293 25.4332 11.9971 23.6108 12 21.75C12 16.365 16.365 12 21.75 12C23.6827 12 25.485 12.5625 27 13.533V3.9375C27 1.7625 25.2375 0 23.0625 0H3.9375ZM3 11.625C3 10.7299 3.35558 9.87145 3.98851 9.23851C4.62145 8.60558 5.47989 8.25 6.375 8.25C7.27011 8.25 8.12855 8.60558 8.76149 9.23851C9.39442 9.87145 9.75 10.7299 9.75 11.625C9.75 12.5201 9.39442 13.3785 8.76149 14.0115C8.12855 14.6444 7.27011 15 6.375 15C5.47989 15 4.62145 14.6444 3.98851 14.0115C3.35558 13.3785 3 12.5201 3 11.625V11.625ZM6.375 17.25C7.27011 17.25 8.12855 17.6056 8.76149 18.2385C9.39442 18.8715 9.75 19.7299 9.75 20.625C9.75 21.5201 9.39442 22.3785 8.76149 23.0115C8.12855 23.6444 7.27011 24 6.375 24C5.47989 24 4.62145 23.6444 3.98851 23.0115C3.35558 22.3785 3 21.5201 3 20.625C3 19.7299 3.35558 18.8715 3.98851 18.2385C4.62145 17.6056 5.47989 17.25 6.375 17.25V17.25ZM11.25 10.3125C11.25 9.795 11.67 9.375 12.1875 9.375H23.0618C23.3104 9.375 23.5488 9.47377 23.7247 9.64959C23.9005 9.8254 23.9993 10.0639 23.9993 10.3125C23.9993 10.5611 23.9005 10.7996 23.7247 10.9754C23.5488 11.1512 23.3104 11.25 23.0618 11.25H12.1875C11.67 11.25 11.25 10.83 11.25 10.3125ZM3.94725 3.82125H23.0475C23.2961 3.82125 23.5346 3.92002 23.7104 4.09584C23.8862 4.27165 23.985 4.51011 23.985 4.75875C23.985 5.00739 23.8862 5.24585 23.7104 5.42166C23.5346 5.59748 23.2961 5.69625 23.0475 5.69625H3.94725C3.69861 5.69625 3.46015 5.59748 3.28434 5.42166C3.10852 5.24585 3.00975 5.00739 3.00975 4.75875C3.00975 4.51011 3.10852 4.27165 3.28434 4.09584C3.46015 3.92002 3.69861 3.82125 3.94725 3.82125V3.82125ZM30 21.75C30 26.3062 26.3062 30 21.75 30C17.1938 30 13.5 26.3062 13.5 21.75C13.5 17.1938 17.1938 13.5 21.75 13.5C26.3062 13.5 30 17.1938 30 21.75ZM22.5 16.5C22.5 16.3011 22.421 16.1103 22.2803 15.9697C22.1397 15.829 21.9489 15.75 21.75 15.75C21.5511 15.75 21.3603 15.829 21.2197 15.9697C21.079 16.1103 21 16.3011 21 16.5V21H16.5C16.3011 21 16.1103 21.079 15.9697 21.2197C15.829 21.3603 15.75 21.5511 15.75 21.75C15.75 21.9489 15.829 22.1397 15.9697 22.2803C16.1103 22.421 16.3011 22.5 16.5 22.5H21V27C21 27.1989 21.079 27.3897 21.2197 27.5303C21.3603 27.671 21.5511 27.75 21.75 27.75C21.9489 27.75 22.1397 27.671 22.2803 27.5303C22.421 27.3897 22.5 27.1989 22.5 27V22.5H27C27.1989 22.5 27.3897 22.421 27.5303 22.2803C27.671 22.1397 27.75 21.9489 27.75 21.75C27.75 21.5511 27.671 21.3603 27.5303 21.2197C27.3897 21.079 27.1989 21 27 21H22.5V16.5Z" fill="#828282"/>
</svg>
