<svg width="32" height="25" viewBox="0 0 32 25" fill="none" xmlns="http://www.w3.org/2000/svg">
<path d="M31.8641 18.9273L29.1699 4.85352C28.5589 2.09521 27.5838 0 23.1014 0H8.8958C4.34447 0 3.43834 2.09521 2.82736 4.85352L0.137945 18.9273C-0.344771 21.2598 0.443435 23.1144 2.43912 23.8362C4.43481 24.5581 5.9995 23.4473 7.11526 21.2803L8.17862 19.1939C8.27071 19.0134 8.4115 18.8617 8.58535 18.7558C8.7592 18.6498 8.95928 18.5937 9.16336 18.5938H22.8366C23.0407 18.5937 23.2408 18.6498 23.4146 18.7558C23.5885 18.8617 23.7293 19.0134 23.8214 19.1939L24.8847 21.2803C25.9977 23.4473 27.5659 24.5615 29.5609 23.8362C31.5559 23.1109 32.342 21.2598 31.8641 18.9273ZM14.3436 10.9375H11.0335V14.2188H8.82684V10.9375H5.51678V8.75H8.82684V5.46875H11.0335V8.75H14.3436V10.9375ZM19.0328 11.2109C18.7601 11.2109 18.4934 11.1308 18.2666 10.9805C18.0398 10.8303 17.863 10.6168 17.7586 10.367C17.6542 10.1171 17.6269 9.84223 17.6801 9.57702C17.7334 9.31182 17.8647 9.06821 18.0576 8.877C18.2505 8.6858 18.4962 8.55559 18.7638 8.50283C19.0313 8.45008 19.3086 8.47715 19.5606 8.58063C19.8126 8.68411 20.028 8.85935 20.1796 9.08418C20.3311 9.30901 20.412 9.57335 20.412 9.84375C20.412 10.2064 20.2667 10.5541 20.0081 10.8105C19.7494 11.0669 19.3986 11.2109 19.0328 11.2109V11.2109ZM22.067 14.2188C21.7943 14.2188 21.5276 14.1386 21.3008 13.9883C21.074 13.8381 20.8972 13.6246 20.7928 13.3748C20.6885 13.1249 20.6611 12.85 20.7144 12.5848C20.7676 12.3196 20.8989 12.076 21.0918 11.8848C21.2847 11.6936 21.5304 11.5634 21.798 11.5106C22.0655 11.4579 22.3428 11.485 22.5948 11.5884C22.8469 11.6919 23.0623 11.8672 23.2138 12.092C23.3654 12.3168 23.4462 12.5812 23.4462 12.8516C23.4462 13.2142 23.3009 13.5619 23.0423 13.8183C22.7836 14.0747 22.4328 14.2188 22.067 14.2188ZM22.067 8.20312C21.7943 8.20312 21.5276 8.12294 21.3008 7.97271C21.074 7.82248 20.8972 7.60896 20.7928 7.35914C20.6885 7.10932 20.6611 6.83442 20.7144 6.56921C20.7676 6.304 20.8989 6.06039 21.0918 5.86919C21.2847 5.67799 21.5304 5.54777 21.798 5.49502C22.0655 5.44227 22.3428 5.46934 22.5948 5.57282C22.8469 5.6763 23.0623 5.85154 23.2138 6.07637C23.3654 6.3012 23.4462 6.56553 23.4462 6.83594C23.4462 7.19854 23.3009 7.54629 23.0423 7.80269C22.7836 8.05908 22.4328 8.20312 22.067 8.20312ZM25.1013 11.2109C24.8285 11.2109 24.5618 11.1308 24.335 10.9805C24.1082 10.8303 23.9314 10.6168 23.8271 10.367C23.7227 10.1171 23.6954 9.84223 23.7486 9.57702C23.8018 9.31182 23.9331 9.06821 24.126 8.877C24.3189 8.6858 24.5647 8.55559 24.8322 8.50283C25.0997 8.45008 25.377 8.47715 25.6291 8.58063C25.8811 8.68411 26.0965 8.85935 26.248 9.08418C26.3996 9.30901 26.4805 9.57335 26.4805 9.84375C26.4805 10.2064 26.3351 10.5541 26.0765 10.8105C25.8179 11.0669 25.467 11.2109 25.1013 11.2109V11.2109Z" fill="#828282"/>
</svg>
