<svg width="33" height="31" viewBox="0 0 33 31" fill="none" xmlns="http://www.w3.org/2000/svg">
<path d="M19.4717 20.9323L23.0067 17.3973L33 27.3906L29.465 30.9256L19.4717 20.9323ZM25.6667 12.3123C28.8833 12.3123 31.5 9.6956 31.5 6.47893C31.5 5.51227 31.2333 4.61227 30.8167 3.81227L26.3167 8.31227L23.8333 5.82893L28.3333 1.32893C27.5333 0.912267 26.6333 0.6456 25.6667 0.6456C22.45 0.6456 19.8333 3.26227 19.8333 6.47893C19.8333 7.16227 19.9667 7.81227 20.1833 8.41227L17.1 11.4956L14.1333 8.52893L15.3167 7.3456L12.9667 4.9956L16.5 1.46227C15.5625 0.52593 14.2917 0 12.9667 0C11.6417 0 10.3708 0.52593 9.43333 1.46227L3.53333 7.36227L5.88333 9.71227H1.18333L0 10.8956L5.9 16.7956L7.08333 15.6123V10.8956L9.43333 13.2456L10.6167 12.0623L13.5833 15.0289L1.23333 27.3789L4.76667 30.9123L23.7333 11.9623C24.3333 12.1789 24.9833 12.3123 25.6667 12.3123Z" fill="#50B8B2"/>
</svg>
