<svg width="34" height="34" viewBox="0 0 34 34" fill="none" xmlns="http://www.w3.org/2000/svg">
<path d="M16.6667 6.66675C17.1087 6.66675 17.5326 6.84234 17.8452 7.1549C18.1577 7.46746 18.3333 7.89139 18.3333 8.33341V18.3334C18.3333 18.7754 18.1577 19.1994 17.8452 19.5119C17.5326 19.8245 17.1087 20.0001 16.6667 20.0001C16.2246 20.0001 15.8007 19.8245 15.4882 19.5119C15.1756 19.1994 15 18.7754 15 18.3334V8.33341C15 7.89139 15.1756 7.46746 15.4882 7.1549C15.8007 6.84234 16.2246 6.66675 16.6667 6.66675V6.66675ZM16.6667 23.3334C16.2246 23.3334 15.8007 23.509 15.4882 23.8216C15.1756 24.1341 15 24.5581 15 25.0001C15 25.4421 15.1756 25.866 15.4882 26.1786C15.8007 26.4912 16.2246 26.6667 16.6667 26.6667C17.1087 26.6667 17.5326 26.4912 17.8452 26.1786C18.1577 25.866 18.3333 25.4421 18.3333 25.0001C18.3333 24.5581 18.1577 24.1341 17.8452 23.8216C17.5326 23.509 17.1087 23.3334 16.6667 23.3334Z" fill="#EB5757"/>
<path fill-rule="evenodd" clip-rule="evenodd" d="M16.6667 0C7.46167 0 0 7.46167 0 16.6667C0 25.8717 7.46167 33.3333 16.6667 33.3333C25.8717 33.3333 33.3333 25.8717 33.3333 16.6667C33.3333 7.46167 25.8717 0 16.6667 0ZM3.33333 16.6667C3.33333 20.2029 4.73809 23.5943 7.23858 26.0948C9.73906 28.5952 13.1304 30 16.6667 30C20.2029 30 23.5943 28.5952 26.0948 26.0948C28.5952 23.5943 30 20.2029 30 16.6667C30 13.1304 28.5952 9.73906 26.0948 7.23858C23.5943 4.73809 20.2029 3.33333 16.6667 3.33333C13.1304 3.33333 9.73906 4.73809 7.23858 7.23858C4.73809 9.73906 3.33333 13.1304 3.33333 16.6667V16.6667Z" fill="#EB5757"/>
</svg>
